<?xml version="1.0" encoding="UTF-8" standalone="no"?>
<!DOCTYPE svg PUBLIC "-//W3C//DTD SVG 1.1//EN"
 "http://www.w3.org/Graphics/SVG/1.1/DTD/svg11.dtd">
<!-- Generated by graphviz version 12.1.1 (20240910.0053)
 -->
<!-- Title: Taskflow Pages: 1 -->
<svg width="316pt" height="317pt"
 viewBox="0.00 0.00 316.00 316.50" xmlns="http://www.w3.org/2000/svg" xmlns:xlink="http://www.w3.org/1999/xlink">
<g id="graph0" class="graph" transform="scale(1 1) rotate(0) translate(4 312.5)">
<title>Taskflow</title>
<polygon fill="white" stroke="none" points="-4,4 -4,-312.5 312,-312.5 312,4 -4,4"/>
<g id="clust1" class="cluster">
<title>cluster_p0x7ff7b7ab47f0</title>
<polygon fill="none" stroke="black" points="8,-8 8,-300.5 150,-300.5 150,-8 8,-8"/>
<text text-anchor="middle" x="79" y="-283.2" font-family="Times,serif" font-size="14.00">Taskflow: F2</text>
</g>
<g id="clust2" class="cluster">
<title>cluster_p0x7ff7b7ab48a8</title>
<polygon fill="none" stroke="black" points="158,-152 158,-300.5 300,-300.5 300,-152 158,-152"/>
<text text-anchor="middle" x="229" y="-283.2" font-family="Times,serif" font-size="14.00">m1</text>
</g>
<!-- p0x7fe8a0854af0 -->
<g id="node1" class="node">
<title>p0x7fe8a0854af0</title>
<ellipse fill="none" stroke="black" cx="43" cy="-250" rx="27" ry="18"/>
<text text-anchor="middle" x="43" y="-244.95" font-family="Times,serif" font-size="14.00">f2A</text>
</g>
<!-- p0x7fe8a08548d0 -->
<g id="node2" class="node">
<title>p0x7fe8a08548d0</title>
<ellipse fill="none" stroke="black" cx="79" cy="-178" rx="27" ry="18"/>
<text text-anchor="middle" x="79" y="-172.95" font-family="Times,serif" font-size="14.00">f2C</text>
</g>
<!-- p0x7fe8a0854af0&#45;&gt;p0x7fe8a08548d0 -->
<g id="edge1" class="edge">
<title>p0x7fe8a0854af0&#45;&gt;p0x7fe8a08548d0</title>
<path fill="none" stroke="black" d="M51.35,-232.76C55.58,-224.55 60.81,-214.37 65.58,-205.09"/>
<polygon fill="black" stroke="black" points="68.54,-206.99 70,-196.49 62.32,-203.79 68.54,-206.99"/>
</g>
<!-- p0x7fe8a08546b0 -->
<g id="node4" class="node">
<title>p0x7fe8a08546b0</title>
<polygon fill="none" stroke="blue" points="123,-124 39,-124 35,-120 35,-88 119,-88 123,-92 123,-124"/>
<polyline fill="none" stroke="blue" points="119,-120 35,-120"/>
<polyline fill="none" stroke="blue" points="119,-120 119,-88"/>
<polyline fill="none" stroke="blue" points="119,-120 123,-124"/>
<text text-anchor="middle" x="79" y="-100.95" font-family="Times,serif" font-size="14.00">module [m1]</text>
</g>
<!-- p0x7fe8a08548d0&#45;&gt;p0x7fe8a08546b0 -->
<g id="edge3" class="edge">
<title>p0x7fe8a08548d0&#45;&gt;p0x7fe8a08546b0</title>
<path fill="none" stroke="black" d="M79,-159.7C79,-152.41 79,-143.73 79,-135.54"/>
<polygon fill="black" stroke="black" points="82.5,-135.62 79,-125.62 75.5,-135.62 82.5,-135.62"/>
</g>
<!-- p0x7fe8a08549e0 -->
<g id="node3" class="node">
<title>p0x7fe8a08549e0</title>
<ellipse fill="none" stroke="black" cx="115" cy="-250" rx="27" ry="18"/>
<text text-anchor="middle" x="115" y="-244.95" font-family="Times,serif" font-size="14.00">f2B</text>
</g>
<!-- p0x7fe8a08549e0&#45;&gt;p0x7fe8a08548d0 -->
<g id="edge2" class="edge">
<title>p0x7fe8a08549e0&#45;&gt;p0x7fe8a08548d0</title>
<path fill="none" stroke="black" d="M106.65,-232.76C102.42,-224.55 97.19,-214.37 92.42,-205.09"/>
<polygon fill="black" stroke="black" points="95.68,-203.79 88,-196.49 89.46,-206.99 95.68,-203.79"/>
</g>
<!-- p0x7fe8a08547c0 -->
<g id="node5" class="node">
<title>p0x7fe8a08547c0</title>
<ellipse fill="none" stroke="black" cx="79" cy="-34" rx="27" ry="18"/>
<text text-anchor="middle" x="79" y="-28.95" font-family="Times,serif" font-size="14.00">f2D</text>
</g>
<!-- p0x7fe8a08546b0&#45;&gt;p0x7fe8a08547c0 -->
<g id="edge4" class="edge">
<title>p0x7fe8a08546b0&#45;&gt;p0x7fe8a08547c0</title>
<path fill="none" stroke="black" d="M79,-87.7C79,-80.41 79,-71.73 79,-63.54"/>
<polygon fill="black" stroke="black" points="82.5,-63.62 79,-53.62 75.5,-63.62 82.5,-63.62"/>
</g>
<!-- p0x7fe8a0854e20 -->
<g id="node6" class="node">
<title>p0x7fe8a0854e20</title>
<ellipse fill="none" stroke="black" cx="193" cy="-250" rx="27" ry="18"/>
<text text-anchor="middle" x="193" y="-244.95" font-family="Times,serif" font-size="14.00">f1A</text>
</g>
<!-- p0x7fe8a0854c00 -->
<g id="node7" class="node">
<title>p0x7fe8a0854c00</title>
<ellipse fill="none" stroke="black" cx="229" cy="-178" rx="27" ry="18"/>
<text text-anchor="middle" x="229" y="-172.95" font-family="Times,serif" font-size="14.00">f1C</text>
</g>
<!-- p0x7fe8a0854e20&#45;&gt;p0x7fe8a0854c00 -->
<g id="edge5" class="edge">
<title>p0x7fe8a0854e20&#45;&gt;p0x7fe8a0854c00</title>
<path fill="none" stroke="black" d="M201.35,-232.76C205.58,-224.55 210.81,-214.37 215.58,-205.09"/>
<polygon fill="black" stroke="black" points="218.54,-206.99 220,-196.49 212.32,-203.79 218.54,-206.99"/>
</g>
<!-- p0x7fe8a0854d10 -->
<g id="node8" class="node">
<title>p0x7fe8a0854d10</title>
<ellipse fill="none" stroke="black" cx="265" cy="-250" rx="27" ry="18"/>
<text text-anchor="middle" x="265" y="-244.95" font-family="Times,serif" font-size="14.00">f1B</text>
</g>
<!-- p0x7fe8a0854d10&#45;&gt;p0x7fe8a0854c00 -->
<g id="edge6" class="edge">
<title>p0x7fe8a0854d10&#45;&gt;p0x7fe8a0854c00</title>
<path fill="none" stroke="black" d="M256.65,-232.76C252.42,-224.55 247.19,-214.37 242.42,-205.09"/>
<polygon fill="black" stroke="black" points="245.68,-203.79 238,-196.49 239.46,-206.99 245.68,-203.79"/>
</g>
</g>
</svg>
