<?xml version="1.0" encoding="UTF-8" standalone="no"?>
<!DOCTYPE svg PUBLIC "-//W3C//DTD SVG 1.1//EN"
 "http://www.w3.org/Graphics/SVG/1.1/DTD/svg11.dtd">
<!-- Generated by graphviz version 12.1.1 (20240910.0053)
 -->
<!-- Title: Taskflow Pages: 1 -->
<svg width="826pt" height="173pt"
 viewBox="0.00 0.00 826.00 172.50" xmlns="http://www.w3.org/2000/svg" xmlns:xlink="http://www.w3.org/1999/xlink">
<g id="graph0" class="graph" transform="scale(1 1) rotate(0) translate(4 168.5)">
<title>Taskflow</title>
<polygon fill="white" stroke="none" points="-4,4 -4,-168.5 822,-168.5 822,4 -4,4"/>
<g id="clust1" class="cluster">
<title>cluster_p0x7ff7b473a080</title>
<polygon fill="none" stroke="black" points="8,-8 8,-156.5 148,-156.5 148,-8 8,-8"/>
<text text-anchor="middle" x="78" y="-139.2" font-family="Times,serif" font-size="14.00">Taskflow: F4</text>
</g>
<g id="clust2" class="cluster">
<title>cluster_p0x7ff7b473a1f0</title>
<polygon fill="none" stroke="black" points="156,-8 156,-156.5 440,-156.5 440,-8 156,-8"/>
<text text-anchor="middle" x="298" y="-139.2" font-family="Times,serif" font-size="14.00">m2</text>
</g>
<g id="clust3" class="cluster">
<title>cluster_p0x7ff7b473a2a8</title>
<polygon fill="none" stroke="black" points="448,-80 448,-156.5 590,-156.5 590,-80 448,-80"/>
<text text-anchor="middle" x="519" y="-139.2" font-family="Times,serif" font-size="14.00">m3</text>
</g>
<g id="clust4" class="cluster">
<title>cluster_p0x7ff7b473a138</title>
<polygon fill="none" stroke="black" points="598,-80 598,-156.5 810,-156.5 810,-80 598,-80"/>
<text text-anchor="middle" x="704" y="-139.2" font-family="Times,serif" font-size="14.00">m1</text>
</g>
<!-- p0x7f7a2b1545a0 -->
<g id="node1" class="node">
<title>p0x7f7a2b1545a0</title>
<polygon fill="none" stroke="blue" points="140,-124 20,-124 16,-120 16,-88 136,-88 140,-92 140,-124"/>
<polyline fill="none" stroke="blue" points="136,-120 16,-120"/>
<polyline fill="none" stroke="blue" points="136,-120 136,-88"/>
<polyline fill="none" stroke="blue" points="136,-120 140,-124"/>
<text text-anchor="middle" x="78" y="-100.95" font-family="Times,serif" font-size="14.00">module_of_f3 [m1]</text>
</g>
<!-- p0x7f7a2b154490 -->
<g id="node2" class="node">
<title>p0x7f7a2b154490</title>
<polygon fill="none" stroke="blue" points="140,-52 20,-52 16,-48 16,-16 136,-16 140,-20 140,-52"/>
<polyline fill="none" stroke="blue" points="136,-48 16,-48"/>
<polyline fill="none" stroke="blue" points="136,-48 136,-16"/>
<polyline fill="none" stroke="blue" points="136,-48 140,-52"/>
<text text-anchor="middle" x="78" y="-28.95" font-family="Times,serif" font-size="14.00">module_of_f2 [m2]</text>
</g>
<!-- p0x7f7a2b1545a0&#45;&gt;p0x7f7a2b154490 -->
<g id="edge1" class="edge">
<title>p0x7f7a2b1545a0&#45;&gt;p0x7f7a2b154490</title>
<path fill="none" stroke="black" d="M78,-87.7C78,-80.41 78,-71.73 78,-63.54"/>
<polygon fill="black" stroke="black" points="81.5,-63.62 78,-53.62 74.5,-63.62 81.5,-63.62"/>
</g>
<!-- p0x7f7a2b154e20 -->
<g id="node3" class="node">
<title>p0x7f7a2b154e20</title>
<ellipse fill="none" stroke="black" cx="191" cy="-106" rx="27" ry="18"/>
<text text-anchor="middle" x="191" y="-100.95" font-family="Times,serif" font-size="14.00">f2A</text>
</g>
<!-- p0x7f7a2b1547c0 -->
<g id="node4" class="node">
<title>p0x7f7a2b1547c0</title>
<ellipse fill="none" stroke="black" cx="227" cy="-34" rx="27" ry="18"/>
<text text-anchor="middle" x="227" y="-28.95" font-family="Times,serif" font-size="14.00">f2C</text>
</g>
<!-- p0x7f7a2b154e20&#45;&gt;p0x7f7a2b1547c0 -->
<g id="edge2" class="edge">
<title>p0x7f7a2b154e20&#45;&gt;p0x7f7a2b1547c0</title>
<path fill="none" stroke="black" d="M199.35,-88.76C203.58,-80.55 208.81,-70.37 213.58,-61.09"/>
<polygon fill="black" stroke="black" points="216.54,-62.99 218,-52.49 210.32,-59.79 216.54,-62.99"/>
</g>
<!-- p0x7f7a2b1546b0 -->
<g id="node5" class="node">
<title>p0x7f7a2b1546b0</title>
<ellipse fill="none" stroke="black" cx="263" cy="-106" rx="27" ry="18"/>
<text text-anchor="middle" x="263" y="-100.95" font-family="Times,serif" font-size="14.00">f2B</text>
</g>
<!-- p0x7f7a2b1546b0&#45;&gt;p0x7f7a2b1547c0 -->
<g id="edge3" class="edge">
<title>p0x7f7a2b1546b0&#45;&gt;p0x7f7a2b1547c0</title>
<path fill="none" stroke="black" d="M254.65,-88.76C250.42,-80.55 245.19,-70.37 240.42,-61.09"/>
<polygon fill="black" stroke="black" points="243.68,-59.79 236,-52.49 237.46,-62.99 243.68,-59.79"/>
</g>
<!-- p0x7f7a2b1548d0 -->
<g id="node6" class="node">
<title>p0x7f7a2b1548d0</title>
<polygon fill="none" stroke="blue" points="432,-124 312,-124 308,-120 308,-88 428,-88 432,-92 432,-124"/>
<polyline fill="none" stroke="blue" points="428,-120 308,-120"/>
<polyline fill="none" stroke="blue" points="428,-120 428,-88"/>
<polyline fill="none" stroke="blue" points="428,-120 432,-124"/>
<text text-anchor="middle" x="370" y="-100.95" font-family="Times,serif" font-size="14.00">module_of_f1 [m3]</text>
</g>
<!-- p0x7f7a2b154c00 -->
<g id="node7" class="node">
<title>p0x7f7a2b154c00</title>
<ellipse fill="none" stroke="black" cx="483" cy="-106" rx="27" ry="18"/>
<text text-anchor="middle" x="483" y="-100.95" font-family="Times,serif" font-size="14.00">f1A</text>
</g>
<!-- p0x7f7a2b154d10 -->
<g id="node8" class="node">
<title>p0x7f7a2b154d10</title>
<ellipse fill="none" stroke="black" cx="555" cy="-106" rx="27" ry="18"/>
<text text-anchor="middle" x="555" y="-100.95" font-family="Times,serif" font-size="14.00">f1B</text>
</g>
<!-- p0x7f7a2b1549e0 -->
<g id="node9" class="node">
<title>p0x7f7a2b1549e0</title>
<polygon fill="none" stroke="blue" points="730,-124 610,-124 606,-120 606,-88 726,-88 730,-92 730,-124"/>
<polyline fill="none" stroke="blue" points="726,-120 606,-120"/>
<polyline fill="none" stroke="blue" points="726,-120 726,-88"/>
<polyline fill="none" stroke="blue" points="726,-120 730,-124"/>
<text text-anchor="middle" x="668" y="-100.95" font-family="Times,serif" font-size="14.00">module_of_f2 [m2]</text>
</g>
<!-- p0x7f7a2b154af0 -->
<g id="node10" class="node">
<title>p0x7f7a2b154af0</title>
<ellipse fill="none" stroke="black" cx="775" cy="-106" rx="27" ry="18"/>
<text text-anchor="middle" x="775" y="-100.95" font-family="Times,serif" font-size="14.00">f3A</text>
</g>
</g>
</svg>
