<?xml version="1.0" encoding="UTF-8" standalone="no"?>
<!DOCTYPE svg PUBLIC "-//W3C//DTD SVG 1.1//EN"
 "http://www.w3.org/Graphics/SVG/1.1/DTD/svg11.dtd">
<!-- Generated by graphviz version 12.1.2 (20240928.0832)
 -->
<!-- Title: Taskflow Pages: 1 -->
<svg width="229pt" height="351pt"
 viewBox="0.00 0.00 229.00 350.50" xmlns="http://www.w3.org/2000/svg" xmlns:xlink="http://www.w3.org/1999/xlink">
<g id="graph0" class="graph" transform="scale(1 1) rotate(0) translate(4 346.5)">
<title>Taskflow</title>
<polygon fill="white" stroke="none" points="-4,4 -4,-346.5 225,-346.5 225,4 -4,4"/>
<g id="clust1" class="cluster">
<title>cluster_p0x7ff7bc0a15a8</title>
<polygon fill="none" stroke="black" points="8,-8 8,-334.5 213,-334.5 213,-8 8,-8"/>
<text text-anchor="middle" x="110.5" y="-317.2" font-family="Times,serif" font-size="14.00">Taskflow: Conditional Task Demo</text>
</g>
<!-- p0x7fb9e0954d10 -->
<g id="node1" class="node">
<title>p0x7fb9e0954d10</title>
<ellipse fill="none" stroke="black" cx="43" cy="-284" rx="27" ry="18"/>
<text text-anchor="middle" x="43" y="-278.95" font-family="Times,serif" font-size="14.00">A</text>
</g>
<!-- p0x7fb9e0954c00 -->
<g id="node2" class="node">
<title>p0x7fb9e0954c00</title>
<ellipse fill="none" stroke="black" cx="43" cy="-211" rx="27" ry="18"/>
<text text-anchor="middle" x="43" y="-205.95" font-family="Times,serif" font-size="14.00">B</text>
</g>
<!-- p0x7fb9e0954d10&#45;&gt;p0x7fb9e0954c00 -->
<g id="edge1" class="edge">
<title>p0x7fb9e0954d10&#45;&gt;p0x7fb9e0954c00</title>
<path fill="none" stroke="black" d="M43,-265.81C43,-258.23 43,-249.1 43,-240.54"/>
<polygon fill="black" stroke="black" points="46.5,-240.54 43,-230.54 39.5,-240.54 46.5,-240.54"/>
</g>
<!-- p0x7fb9e09548d0 -->
<g id="node3" class="node">
<title>p0x7fb9e09548d0</title>
<polygon fill="aquamarine" stroke="black" points="55,-140.5 28,-122.5 55,-104.5 82,-122.5 55,-140.5"/>
<text text-anchor="middle" x="55" y="-117.45" font-family="Times,serif" font-size="14.00">C</text>
</g>
<!-- p0x7fb9e0954c00&#45;&gt;p0x7fb9e09548d0 -->
<g id="edge2" class="edge">
<title>p0x7fb9e0954c00&#45;&gt;p0x7fb9e09548d0</title>
<path fill="none" stroke="black" d="M40.98,-192.7C40.23,-182.64 39.98,-169.77 42,-158.5 42.66,-154.8 43.7,-150.98 44.89,-147.28"/>
<polygon fill="black" stroke="black" points="48.05,-148.83 48.25,-138.23 41.49,-146.39 48.05,-148.83"/>
</g>
<!-- p0x7fb9e09548d0&#45;&gt;p0x7fb9e0954c00 -->
<g id="edge3" class="edge">
<title>p0x7fb9e09548d0&#45;&gt;p0x7fb9e0954c00</title>
<path fill="none" stroke="black" stroke-dasharray="5,2" d="M52.8,-139.39C51.15,-151.24 48.86,-167.74 46.91,-181.82"/>
<polygon fill="black" stroke="black" points="43.49,-181.03 45.58,-191.41 50.42,-181.99 43.49,-181.03"/>
<text text-anchor="middle" x="53.45" y="-161.7" font-family="Times,serif" font-size="14.00">0</text>
</g>
<!-- p0x7fb9e09547c0 -->
<g id="node4" class="node">
<title>p0x7fb9e09547c0</title>
<ellipse fill="none" stroke="black" cx="55" cy="-34" rx="27" ry="18"/>
<text text-anchor="middle" x="55" y="-28.95" font-family="Times,serif" font-size="14.00">D</text>
</g>
<!-- p0x7fb9e09548d0&#45;&gt;p0x7fb9e09547c0 -->
<g id="edge4" class="edge">
<title>p0x7fb9e09548d0&#45;&gt;p0x7fb9e09547c0</title>
<path fill="none" stroke="black" stroke-dasharray="5,2" d="M55,-104C55,-92.51 55,-77.2 55,-63.93"/>
<polygon fill="black" stroke="black" points="58.5,-63.99 55,-53.99 51.5,-63.99 58.5,-63.99"/>
<text text-anchor="middle" x="58.38" y="-73.2" font-family="Times,serif" font-size="14.00">1</text>
</g>
</g>
</svg>
