<?xml version="1.0" encoding="UTF-8" standalone="no"?>
<!DOCTYPE svg PUBLIC "-//W3C//DTD SVG 1.1//EN"
 "http://www.w3.org/Graphics/SVG/1.1/DTD/svg11.dtd">
<!-- Generated by graphviz version 12.1.2 (20240928.0832)
 -->
<!-- Title: Taskflow Pages: 1 -->
<svg width="186pt" height="351pt"
 viewBox="0.00 0.00 186.00 350.50" xmlns="http://www.w3.org/2000/svg" xmlns:xlink="http://www.w3.org/1999/xlink">
<g id="graph0" class="graph" transform="scale(1 1) rotate(0) translate(4 346.5)">
<title>Taskflow</title>
<polygon fill="white" stroke="none" points="-4,4 -4,-346.5 182,-346.5 182,4 -4,4"/>
<g id="clust1" class="cluster">
<title>cluster_p0x7ff7b94cf2a8</title>
<polygon fill="none" stroke="black" points="8,-8 8,-334.5 170,-334.5 170,-8 8,-8"/>
<text text-anchor="middle" x="89" y="-317.2" font-family="Times,serif" font-size="14.00">Taskflow: do_while_loop</text>
</g>
<!-- p0x7f91cc3659e0 -->
<g id="node1" class="node">
<title>p0x7f91cc3659e0</title>
<ellipse fill="none" stroke="black" cx="89" cy="-284" rx="33.44" ry="18"/>
<text text-anchor="middle" x="89" y="-278.95" font-family="Times,serif" font-size="14.00">init=0</text>
</g>
<!-- p0x7f91cc365e20 -->
<g id="node2" class="node">
<title>p0x7f91cc365e20</title>
<ellipse fill="none" stroke="black" cx="89" cy="-211" rx="36.51" ry="18"/>
<text text-anchor="middle" x="89" y="-205.95" font-family="Times,serif" font-size="14.00">do ++i</text>
</g>
<!-- p0x7f91cc3659e0&#45;&gt;p0x7f91cc365e20 -->
<g id="edge1" class="edge">
<title>p0x7f91cc3659e0&#45;&gt;p0x7f91cc365e20</title>
<path fill="none" stroke="black" d="M89,-265.81C89,-258.23 89,-249.1 89,-240.54"/>
<polygon fill="black" stroke="black" points="92.5,-240.54 89,-230.54 85.5,-240.54 92.5,-240.54"/>
</g>
<!-- p0x7f91cc365d10 -->
<g id="node3" class="node">
<title>p0x7f91cc365d10</title>
<polygon fill="aquamarine" stroke="black" points="89,-140.5 15.65,-122.5 89,-104.5 162.35,-122.5 89,-140.5"/>
<text text-anchor="middle" x="89" y="-117.45" font-family="Times,serif" font-size="14.00">while i &lt; 5</text>
</g>
<!-- p0x7f91cc365e20&#45;&gt;p0x7f91cc365d10 -->
<g id="edge2" class="edge">
<title>p0x7f91cc365e20&#45;&gt;p0x7f91cc365d10</title>
<path fill="none" stroke="black" d="M84.83,-192.66C83.67,-187.06 82.57,-180.8 82,-175 81.28,-167.7 81.28,-165.8 82,-158.5 82.25,-155.99 82.59,-153.4 83,-150.82"/>
<polygon fill="black" stroke="black" points="86.39,-151.74 84.77,-141.27 79.51,-150.46 86.39,-151.74"/>
</g>
<!-- p0x7f91cc365d10&#45;&gt;p0x7f91cc365e20 -->
<g id="edge3" class="edge">
<title>p0x7f91cc365d10&#45;&gt;p0x7f91cc365e20</title>
<path fill="none" stroke="black" stroke-dasharray="5,2" d="M89,-140.85C89,-152.56 89,-168.29 89,-181.78"/>
<polygon fill="black" stroke="black" points="85.5,-181.4 89,-191.4 92.5,-181.4 85.5,-181.4"/>
<text text-anchor="middle" x="92.38" y="-161.7" font-family="Times,serif" font-size="14.00">0</text>
</g>
<!-- p0x7f91cc365c00 -->
<g id="node4" class="node">
<title>p0x7f91cc365c00</title>
<ellipse fill="none" stroke="black" cx="89" cy="-34" rx="28.83" ry="18"/>
<text text-anchor="middle" x="89" y="-28.95" font-family="Times,serif" font-size="14.00">done</text>
</g>
<!-- p0x7f91cc365d10&#45;&gt;p0x7f91cc365c00 -->
<g id="edge4" class="edge">
<title>p0x7f91cc365d10&#45;&gt;p0x7f91cc365c00</title>
<path fill="none" stroke="black" stroke-dasharray="5,2" d="M89,-104C89,-92.51 89,-77.2 89,-63.93"/>
<polygon fill="black" stroke="black" points="92.5,-63.99 89,-53.99 85.5,-63.99 92.5,-63.99"/>
<text text-anchor="middle" x="92.38" y="-73.2" font-family="Times,serif" font-size="14.00">1</text>
</g>
</g>
</svg>
