<?xml version="1.0" encoding="UTF-8" standalone="no"?>
<!DOCTYPE svg PUBLIC "-//W3C//DTD SVG 1.1//EN"
 "http://www.w3.org/Graphics/SVG/1.1/DTD/svg11.dtd">
<!-- Generated by graphviz version 12.1.1 (20240910.0053)
 -->
<!-- Title: Taskflow Pages: 1 -->
<svg width="198pt" height="245pt"
 viewBox="0.00 0.00 198.00 244.50" xmlns="http://www.w3.org/2000/svg" xmlns:xlink="http://www.w3.org/1999/xlink">
<g id="graph0" class="graph" transform="scale(1 1) rotate(0) translate(4 240.5)">
<title>Taskflow</title>
<polygon fill="white" stroke="none" points="-4,4 -4,-240.5 194,-240.5 194,4 -4,4"/>
<g id="clust1" class="cluster">
<title>cluster_p0x7ff7bae409a8</title>
<polygon fill="none" stroke="black" points="8,-8 8,-228.5 182,-228.5 182,-8 8,-8"/>
<text text-anchor="middle" x="95" y="-211.2" font-family="Times,serif" font-size="14.00">Taskflow: exception</text>
</g>
<!-- p0x7fe469165c00 -->
<g id="node1" class="node">
<title>p0x7fe469165c00</title>
<ellipse fill="none" stroke="black" cx="95" cy="-178" rx="35.49" ry="18"/>
<text text-anchor="middle" x="95" y="-172.95" font-family="Times,serif" font-size="14.00">TaskA</text>
</g>
<!-- p0x7fe469165d10 -->
<g id="node2" class="node">
<title>p0x7fe469165d10</title>
<ellipse fill="none" stroke="black" cx="51" cy="-106" rx="34.97" ry="18"/>
<text text-anchor="middle" x="51" y="-100.95" font-family="Times,serif" font-size="14.00">TaskB</text>
</g>
<!-- p0x7fe469165c00&#45;&gt;p0x7fe469165d10 -->
<g id="edge1" class="edge">
<title>p0x7fe469165c00&#45;&gt;p0x7fe469165d10</title>
<path fill="none" stroke="black" d="M84.57,-160.41C79.42,-152.22 73.09,-142.14 67.31,-132.95"/>
<polygon fill="black" stroke="black" points="70.44,-131.36 62.16,-124.75 64.52,-135.08 70.44,-131.36"/>
</g>
<!-- p0x7fe469165e20 -->
<g id="node3" class="node">
<title>p0x7fe469165e20</title>
<ellipse fill="none" stroke="black" cx="139" cy="-106" rx="34.97" ry="18"/>
<text text-anchor="middle" x="139" y="-100.95" font-family="Times,serif" font-size="14.00">TaskC</text>
</g>
<!-- p0x7fe469165c00&#45;&gt;p0x7fe469165e20 -->
<g id="edge2" class="edge">
<title>p0x7fe469165c00&#45;&gt;p0x7fe469165e20</title>
<path fill="none" stroke="black" d="M105.43,-160.41C110.58,-152.22 116.91,-142.14 122.69,-132.95"/>
<polygon fill="black" stroke="black" points="125.48,-135.08 127.84,-124.75 119.56,-131.36 125.48,-135.08"/>
</g>
<!-- p0x7fe4691659e0 -->
<g id="node4" class="node">
<title>p0x7fe4691659e0</title>
<ellipse fill="none" stroke="black" cx="95" cy="-34" rx="27" ry="18"/>
<text text-anchor="middle" x="95" y="-28.95" font-family="Times,serif" font-size="14.00">D</text>
</g>
<!-- p0x7fe469165d10&#45;&gt;p0x7fe4691659e0 -->
<g id="edge3" class="edge">
<title>p0x7fe469165d10&#45;&gt;p0x7fe4691659e0</title>
<path fill="none" stroke="black" d="M61.43,-88.41C66.65,-80.1 73.1,-69.85 78.94,-60.56"/>
<polygon fill="black" stroke="black" points="81.79,-62.6 84.14,-52.27 75.86,-58.87 81.79,-62.6"/>
</g>
<!-- p0x7fe469165e20&#45;&gt;p0x7fe4691659e0 -->
<g id="edge4" class="edge">
<title>p0x7fe469165e20&#45;&gt;p0x7fe4691659e0</title>
<path fill="none" stroke="black" d="M128.57,-88.41C123.35,-80.1 116.9,-69.85 111.06,-60.56"/>
<polygon fill="black" stroke="black" points="114.14,-58.87 105.86,-52.27 108.21,-62.6 114.14,-58.87"/>
</g>
</g>
</svg>
