<?xml version="1.0" encoding="UTF-8" standalone="no"?>
<!DOCTYPE svg PUBLIC "-//W3C//DTD SVG 1.1//EN"
 "http://www.w3.org/Graphics/SVG/1.1/DTD/svg11.dtd">
<!-- Generated by graphviz version 12.1.2 (20240928.0832)
 -->
<!-- Title: Taskflow Pages: 1 -->
<svg width="182pt" height="213pt"
 viewBox="0.00 0.00 182.00 213.00" xmlns="http://www.w3.org/2000/svg" xmlns:xlink="http://www.w3.org/1999/xlink">
<g id="graph0" class="graph" transform="scale(1 1) rotate(0) translate(4 209)">
<title>Taskflow</title>
<polygon fill="white" stroke="none" points="-4,4 -4,-209 178,-209 178,4 -4,4"/>
<g id="clust1" class="cluster">
<title>cluster_p0x7ff7b94cf1c8</title>
<polygon fill="none" stroke="black" points="8,-8 8,-197 166,-197 166,-8 8,-8"/>
<text text-anchor="middle" x="87" y="-179.7" font-family="Times,serif" font-size="14.00">Taskflow: fibonacci_N2</text>
</g>
<g id="clust2" class="cluster">
<title>cluster_p0x7f91cc3659e0</title>
<polygon fill="none" stroke="blue" points="16,-16 16,-164.5 158,-164.5 158,-16 16,-16"/>
<text text-anchor="middle" x="87" y="-147.2" font-family="Times,serif" font-size="14.00">Subflow: 2</text>
</g>
<!-- p0x7f91cc3659e0 -->
<g id="node1" class="node">
<title>p0x7f91cc3659e0</title>
<ellipse fill="none" stroke="black" cx="87" cy="-42" rx="27" ry="18"/>
<text text-anchor="middle" x="87" y="-36.95" font-family="Times,serif" font-size="14.00">2</text>
</g>
<!-- p0x7f91cc345580 -->
<g id="node2" class="node">
<title>p0x7f91cc345580</title>
<ellipse fill="none" stroke="black" cx="51" cy="-114" rx="27" ry="18"/>
<text text-anchor="middle" x="51" y="-108.95" font-family="Times,serif" font-size="14.00">1</text>
</g>
<!-- p0x7f91cc345580&#45;&gt;p0x7f91cc3659e0 -->
<g id="edge1" class="edge">
<title>p0x7f91cc345580&#45;&gt;p0x7f91cc3659e0</title>
<path fill="none" stroke="black" d="M59.35,-96.76C63.58,-88.55 68.81,-78.37 73.58,-69.09"/>
<polygon fill="black" stroke="black" points="76.54,-70.99 78,-60.49 70.32,-67.79 76.54,-70.99"/>
</g>
<!-- p0x7f91cc345140 -->
<g id="node3" class="node">
<title>p0x7f91cc345140</title>
<ellipse fill="none" stroke="black" cx="123" cy="-114" rx="27" ry="18"/>
<text text-anchor="middle" x="123" y="-108.95" font-family="Times,serif" font-size="14.00">0</text>
</g>
<!-- p0x7f91cc345140&#45;&gt;p0x7f91cc3659e0 -->
<g id="edge2" class="edge">
<title>p0x7f91cc345140&#45;&gt;p0x7f91cc3659e0</title>
<path fill="none" stroke="black" d="M114.65,-96.76C110.42,-88.55 105.19,-78.37 100.42,-69.09"/>
<polygon fill="black" stroke="black" points="103.68,-67.79 96,-60.49 97.46,-70.99 103.68,-67.79"/>
</g>
</g>
</svg>
