<?xml version="1.0" encoding="UTF-8" standalone="no"?>
<!DOCTYPE svg PUBLIC "-//W3C//DTD SVG 1.1//EN"
 "http://www.w3.org/Graphics/SVG/1.1/DTD/svg11.dtd">
<!-- Generated by graphviz version 12.1.1 (20240910.0053)
 -->
<!-- Title: Taskflow Pages: 1 -->
<svg width="195pt" height="262pt"
 viewBox="0.00 0.00 195.00 262.00" xmlns="http://www.w3.org/2000/svg" xmlns:xlink="http://www.w3.org/1999/xlink">
<g id="graph0" class="graph" transform="scale(1 1) rotate(0) translate(4 258)">
<title>Taskflow</title>
<polygon fill="white" stroke="none" points="-4,4 -4,-258 191,-258 191,4 -4,4"/>
<g id="clust1" class="cluster">
<title>cluster_p0x7ff7b31961a8</title>
<polygon fill="none" stroke="black" points="8,-8 8,-246 179,-246 179,-8 8,-8"/>
<text text-anchor="middle" x="93.5" y="-228.7" font-family="Times,serif" font-size="14.00">Taskflow: p0x7ff7b3196148</text>
</g>
<!-- p0x7f80980659e0 -->
<g id="node1" class="node">
<title>p0x7f80980659e0</title>
<ellipse fill="none" stroke="black" cx="65" cy="-195.5" rx="27" ry="18"/>
<text text-anchor="middle" x="65" y="-190.45" font-family="Times,serif" font-size="14.00">init</text>
</g>
<!-- p0x7f8098064d20 -->
<g id="node2" class="node">
<title>p0x7f8098064d20</title>
<polygon fill="aquamarine" stroke="black" points="65,-140.5 24.23,-122.5 65,-104.5 105.77,-122.5 65,-140.5"/>
<text text-anchor="middle" x="65" y="-117.45" font-family="Times,serif" font-size="14.00">cond</text>
</g>
<!-- p0x7f80980659e0&#45;&gt;p0x7f8098064d20 -->
<g id="edge1" class="edge">
<title>p0x7f80980659e0&#45;&gt;p0x7f8098064d20</title>
<path fill="none" stroke="black" d="M65,-177.31C65,-169.84 65,-160.87 65,-152.42"/>
<polygon fill="black" stroke="black" points="68.5,-152.54 65,-142.54 61.5,-152.54 68.5,-152.54"/>
</g>
<!-- p0x7f8098064e30 -->
<g id="node3" class="node">
<title>p0x7f8098064e30</title>
<ellipse fill="none" stroke="black" cx="54" cy="-34" rx="27" ry="18"/>
<text text-anchor="middle" x="54" y="-28.95" font-family="Times,serif" font-size="14.00">yes</text>
</g>
<!-- p0x7f8098064d20&#45;&gt;p0x7f8098064e30 -->
<g id="edge2" class="edge">
<title>p0x7f8098064d20&#45;&gt;p0x7f8098064e30</title>
<path fill="none" stroke="black" stroke-dasharray="5,2" d="M62.93,-105.23C61.45,-93.57 59.41,-77.56 57.66,-63.77"/>
<polygon fill="black" stroke="black" points="61.14,-63.36 56.4,-53.89 54.19,-64.25 61.14,-63.36"/>
<text text-anchor="middle" x="63.86" y="-73.2" font-family="Times,serif" font-size="14.00">0</text>
</g>
<!-- p0x7f8098064b00 -->
<g id="node4" class="node">
<title>p0x7f8098064b00</title>
<ellipse fill="none" stroke="black" cx="126" cy="-34" rx="27" ry="18"/>
<text text-anchor="middle" x="126" y="-28.95" font-family="Times,serif" font-size="14.00">no</text>
</g>
<!-- p0x7f8098064d20&#45;&gt;p0x7f8098064b00 -->
<g id="edge3" class="edge">
<title>p0x7f8098064d20&#45;&gt;p0x7f8098064b00</title>
<path fill="none" stroke="black" stroke-dasharray="5,2" d="M74.26,-108.36C83.32,-95.52 97.33,-75.66 108.48,-59.84"/>
<polygon fill="black" stroke="black" points="111.22,-62.03 114.12,-51.85 105.5,-58 111.22,-62.03"/>
<text text-anchor="middle" x="104.34" y="-73.2" font-family="Times,serif" font-size="14.00">1</text>
</g>
</g>
</svg>
