<?xml version="1.0" encoding="UTF-8" standalone="no"?>
<!DOCTYPE svg PUBLIC "-//W3C//DTD SVG 1.1//EN"
 "http://www.w3.org/Graphics/SVG/1.1/DTD/svg11.dtd">
<!-- Generated by graphviz version 12.1.2 (20240928.0832)
 -->
<!-- Title: Taskflow Pages: 1 -->
<svg width="252pt" height="189pt"
 viewBox="0.00 0.00 252.00 189.00" xmlns="http://www.w3.org/2000/svg" xmlns:xlink="http://www.w3.org/1999/xlink">
<g id="graph0" class="graph" transform="scale(1 1) rotate(0) translate(4 185)">
<title>Taskflow</title>
<polygon fill="white" stroke="none" points="-4,4 -4,-185 248,-185 248,4 -4,4"/>
<g id="clust1" class="cluster">
<title>cluster_p0x7ff7bc8c9128</title>
<polygon fill="none" stroke="black" points="8,-8 8,-173 236,-173 236,-8 8,-8"/>
<text text-anchor="middle" x="122" y="-155.7" font-family="Times,serif" font-size="14.00">Taskflow: multi&#45;conditional task</text>
</g>
<!-- p0x7f8f12065af0 -->
<g id="node1" class="node">
<title>p0x7f8f12065af0</title>
<polygon fill="aquamarine" stroke="black" points="122,-140.5 16.08,-122.5 122,-104.5 227.92,-122.5 122,-140.5"/>
<text text-anchor="middle" x="122" y="-117.45" font-family="Times,serif" font-size="14.00">p0x7f8f12065af0</text>
</g>
<!-- p0x7f8f120659e0 -->
<g id="node2" class="node">
<title>p0x7f8f120659e0</title>
<ellipse fill="none" stroke="black" cx="50" cy="-34" rx="27" ry="18"/>
<text text-anchor="middle" x="50" y="-28.95" font-family="Times,serif" font-size="14.00">B</text>
</g>
<!-- p0x7f8f12065af0&#45;&gt;p0x7f8f120659e0 -->
<g id="edge1" class="edge">
<title>p0x7f8f12065af0&#45;&gt;p0x7f8f120659e0</title>
<path fill="none" stroke="black" stroke-dasharray="5,2" d="M109.46,-106.43C98.48,-93.24 82.34,-73.86 69.65,-58.61"/>
<polygon fill="black" stroke="black" points="72.7,-56.79 63.61,-51.35 67.32,-61.27 72.7,-56.79"/>
<text text-anchor="middle" x="95.82" y="-73.2" font-family="Times,serif" font-size="14.00">0</text>
</g>
<!-- p0x7f8f12065e20 -->
<g id="node3" class="node">
<title>p0x7f8f12065e20</title>
<ellipse fill="none" stroke="black" cx="122" cy="-34" rx="27" ry="18"/>
<text text-anchor="middle" x="122" y="-28.95" font-family="Times,serif" font-size="14.00">C</text>
</g>
<!-- p0x7f8f12065af0&#45;&gt;p0x7f8f12065e20 -->
<g id="edge2" class="edge">
<title>p0x7f8f12065af0&#45;&gt;p0x7f8f12065e20</title>
<path fill="none" stroke="black" stroke-dasharray="5,2" d="M122,-104C122,-92.51 122,-77.2 122,-63.93"/>
<polygon fill="black" stroke="black" points="125.5,-63.99 122,-53.99 118.5,-63.99 125.5,-63.99"/>
<text text-anchor="middle" x="125.38" y="-73.2" font-family="Times,serif" font-size="14.00">1</text>
</g>
<!-- p0x7f8f12065d10 -->
<g id="node4" class="node">
<title>p0x7f8f12065d10</title>
<ellipse fill="none" stroke="black" cx="194" cy="-34" rx="27" ry="18"/>
<text text-anchor="middle" x="194" y="-28.95" font-family="Times,serif" font-size="14.00">D</text>
</g>
<!-- p0x7f8f12065af0&#45;&gt;p0x7f8f12065d10 -->
<g id="edge3" class="edge">
<title>p0x7f8f12065af0&#45;&gt;p0x7f8f12065d10</title>
<path fill="none" stroke="black" stroke-dasharray="5,2" d="M134.54,-106.43C145.52,-93.24 161.66,-73.86 174.35,-58.61"/>
<polygon fill="black" stroke="black" points="176.68,-61.27 180.39,-51.35 171.3,-56.79 176.68,-61.27"/>
<text text-anchor="middle" x="167.82" y="-73.2" font-family="Times,serif" font-size="14.00">2</text>
</g>
</g>
</svg>
