<?xml version="1.0" encoding="UTF-8" standalone="no"?>
<!DOCTYPE svg PUBLIC "-//W3C//DTD SVG 1.1//EN"
 "http://www.w3.org/Graphics/SVG/1.1/DTD/svg11.dtd">
<!-- Generated by graphviz version 12.1.2 (20240928.0832)
 -->
<!-- Title: Taskflow Pages: 1 -->
<svg width="258pt" height="189pt"
 viewBox="0.00 0.00 258.00 189.00" xmlns="http://www.w3.org/2000/svg" xmlns:xlink="http://www.w3.org/1999/xlink">
<g id="graph0" class="graph" transform="scale(1 1) rotate(0) translate(4 185)">
<title>Taskflow</title>
<polygon fill="white" stroke="none" points="-4,4 -4,-185 254,-185 254,4 -4,4"/>
<g id="clust1" class="cluster">
<title>cluster_p0x7ff7b94cf2a8</title>
<polygon fill="none" stroke="black" points="8,-8 8,-173 242,-173 242,-8 8,-8"/>
<text text-anchor="middle" x="125" y="-155.7" font-family="Times,serif" font-size="14.00">Taskflow: multi&#45;conditional task</text>
</g>
<!-- p0x7f91cc3657c0 -->
<g id="node1" class="node">
<title>p0x7f91cc3657c0</title>
<polygon fill="aquamarine" stroke="black" points="125,-140.5 16.19,-122.5 125,-104.5 233.81,-122.5 125,-140.5"/>
<text text-anchor="middle" x="125" y="-117.45" font-family="Times,serif" font-size="14.00">p0x7f91cc3657c0</text>
</g>
<!-- p0x7f91cc3658d0 -->
<g id="node2" class="node">
<title>p0x7f91cc3658d0</title>
<ellipse fill="none" stroke="black" cx="53" cy="-34" rx="27" ry="18"/>
<text text-anchor="middle" x="53" y="-28.95" font-family="Times,serif" font-size="14.00">B</text>
</g>
<!-- p0x7f91cc3657c0&#45;&gt;p0x7f91cc3658d0 -->
<g id="edge1" class="edge">
<title>p0x7f91cc3657c0&#45;&gt;p0x7f91cc3658d0</title>
<path fill="none" stroke="black" stroke-dasharray="5,2" d="M112.46,-106.43C101.48,-93.24 85.34,-73.86 72.65,-58.61"/>
<polygon fill="black" stroke="black" points="75.7,-56.79 66.61,-51.35 70.32,-61.27 75.7,-56.79"/>
<text text-anchor="middle" x="98.82" y="-73.2" font-family="Times,serif" font-size="14.00">0</text>
</g>
<!-- p0x7f91cc3656b0 -->
<g id="node3" class="node">
<title>p0x7f91cc3656b0</title>
<ellipse fill="none" stroke="black" cx="125" cy="-34" rx="27" ry="18"/>
<text text-anchor="middle" x="125" y="-28.95" font-family="Times,serif" font-size="14.00">C</text>
</g>
<!-- p0x7f91cc3657c0&#45;&gt;p0x7f91cc3656b0 -->
<g id="edge2" class="edge">
<title>p0x7f91cc3657c0&#45;&gt;p0x7f91cc3656b0</title>
<path fill="none" stroke="black" stroke-dasharray="5,2" d="M125,-104C125,-92.51 125,-77.2 125,-63.93"/>
<polygon fill="black" stroke="black" points="128.5,-63.99 125,-53.99 121.5,-63.99 128.5,-63.99"/>
<text text-anchor="middle" x="128.38" y="-73.2" font-family="Times,serif" font-size="14.00">1</text>
</g>
<!-- p0x7f91cc3659e0 -->
<g id="node4" class="node">
<title>p0x7f91cc3659e0</title>
<ellipse fill="none" stroke="black" cx="197" cy="-34" rx="27" ry="18"/>
<text text-anchor="middle" x="197" y="-28.95" font-family="Times,serif" font-size="14.00">D</text>
</g>
<!-- p0x7f91cc3657c0&#45;&gt;p0x7f91cc3659e0 -->
<g id="edge3" class="edge">
<title>p0x7f91cc3657c0&#45;&gt;p0x7f91cc3659e0</title>
<path fill="none" stroke="black" stroke-dasharray="5,2" d="M137.54,-106.43C148.52,-93.24 164.66,-73.86 177.35,-58.61"/>
<polygon fill="black" stroke="black" points="179.68,-61.27 183.39,-51.35 174.3,-56.79 179.68,-61.27"/>
<text text-anchor="middle" x="170.82" y="-73.2" font-family="Times,serif" font-size="14.00">2</text>
</g>
</g>
</svg>
