<?xml version="1.0" encoding="UTF-8" standalone="no"?>
<!DOCTYPE svg PUBLIC "-//W3C//DTD SVG 1.1//EN"
 "http://www.w3.org/Graphics/SVG/1.1/DTD/svg11.dtd">
<!-- Generated by graphviz version 12.1.2 (20240928.0832)
 -->
<!-- Title: Taskflow Pages: 1 -->
<svg width="260pt" height="189pt"
 viewBox="0.00 0.00 260.00 189.00" xmlns="http://www.w3.org/2000/svg" xmlns:xlink="http://www.w3.org/1999/xlink">
<g id="graph0" class="graph" transform="scale(1 1) rotate(0) translate(4 185)">
<title>Taskflow</title>
<polygon fill="white" stroke="none" points="-4,4 -4,-185 256,-185 256,4 -4,4"/>
<g id="clust1" class="cluster">
<title>cluster_p0x7ff7bc0a15a8</title>
<polygon fill="none" stroke="black" points="8,-8 8,-173 244,-173 244,-8 8,-8"/>
<text text-anchor="middle" x="126" y="-155.7" font-family="Times,serif" font-size="14.00">Taskflow: multi&#45;conditional task</text>
</g>
<!-- p0x7fb9e0961e60 -->
<g id="node1" class="node">
<title>p0x7fb9e0961e60</title>
<polygon fill="aquamarine" stroke="black" points="126,-140.5 16.46,-122.5 126,-104.5 235.54,-122.5 126,-140.5"/>
<text text-anchor="middle" x="126" y="-117.45" font-family="Times,serif" font-size="14.00">p0x7fb9e0961e60</text>
</g>
<!-- p0x7fb9e0961d50 -->
<g id="node2" class="node">
<title>p0x7fb9e0961d50</title>
<ellipse fill="none" stroke="black" cx="54" cy="-34" rx="27" ry="18"/>
<text text-anchor="middle" x="54" y="-28.95" font-family="Times,serif" font-size="14.00">B</text>
</g>
<!-- p0x7fb9e0961e60&#45;&gt;p0x7fb9e0961d50 -->
<g id="edge1" class="edge">
<title>p0x7fb9e0961e60&#45;&gt;p0x7fb9e0961d50</title>
<path fill="none" stroke="black" stroke-dasharray="5,2" d="M113.46,-106.43C102.48,-93.24 86.34,-73.86 73.65,-58.61"/>
<polygon fill="black" stroke="black" points="76.7,-56.79 67.61,-51.35 71.32,-61.27 76.7,-56.79"/>
<text text-anchor="middle" x="99.82" y="-73.2" font-family="Times,serif" font-size="14.00">0</text>
</g>
<!-- p0x7fb9e0961c40 -->
<g id="node3" class="node">
<title>p0x7fb9e0961c40</title>
<ellipse fill="none" stroke="black" cx="126" cy="-34" rx="27" ry="18"/>
<text text-anchor="middle" x="126" y="-28.95" font-family="Times,serif" font-size="14.00">C</text>
</g>
<!-- p0x7fb9e0961e60&#45;&gt;p0x7fb9e0961c40 -->
<g id="edge2" class="edge">
<title>p0x7fb9e0961e60&#45;&gt;p0x7fb9e0961c40</title>
<path fill="none" stroke="black" stroke-dasharray="5,2" d="M126,-104C126,-92.51 126,-77.2 126,-63.93"/>
<polygon fill="black" stroke="black" points="129.5,-63.99 126,-53.99 122.5,-63.99 129.5,-63.99"/>
<text text-anchor="middle" x="129.38" y="-73.2" font-family="Times,serif" font-size="14.00">1</text>
</g>
<!-- p0x7fb9e0961b30 -->
<g id="node4" class="node">
<title>p0x7fb9e0961b30</title>
<ellipse fill="none" stroke="black" cx="198" cy="-34" rx="27" ry="18"/>
<text text-anchor="middle" x="198" y="-28.95" font-family="Times,serif" font-size="14.00">D</text>
</g>
<!-- p0x7fb9e0961e60&#45;&gt;p0x7fb9e0961b30 -->
<g id="edge3" class="edge">
<title>p0x7fb9e0961e60&#45;&gt;p0x7fb9e0961b30</title>
<path fill="none" stroke="black" stroke-dasharray="5,2" d="M138.54,-106.43C149.52,-93.24 165.66,-73.86 178.35,-58.61"/>
<polygon fill="black" stroke="black" points="180.68,-61.27 184.39,-51.35 175.3,-56.79 180.68,-61.27"/>
<text text-anchor="middle" x="171.82" y="-73.2" font-family="Times,serif" font-size="14.00">2</text>
</g>
</g>
</svg>
