<?xml version="1.0" encoding="UTF-8" standalone="no"?>
<!DOCTYPE svg PUBLIC "-//W3C//DTD SVG 1.1//EN"
 "http://www.w3.org/Graphics/SVG/1.1/DTD/svg11.dtd">
<!-- Generated by graphviz version 12.1.2 (20240928.0832)
 -->
<!-- Title: Taskflow Pages: 1 -->
<svg width="254pt" height="189pt"
 viewBox="0.00 0.00 254.00 189.00" xmlns="http://www.w3.org/2000/svg" xmlns:xlink="http://www.w3.org/1999/xlink">
<g id="graph0" class="graph" transform="scale(1 1) rotate(0) translate(4 185)">
<title>Taskflow</title>
<polygon fill="white" stroke="none" points="-4,4 -4,-185 250,-185 250,4 -4,4"/>
<g id="clust1" class="cluster">
<title>cluster_p0x7ff7be72b228</title>
<polygon fill="none" stroke="black" points="8,-8 8,-173 238,-173 238,-8 8,-8"/>
<text text-anchor="middle" x="123" y="-155.7" font-family="Times,serif" font-size="14.00">Taskflow: multi&#45;conditional task</text>
</g>
<!-- p0x7fe7d6065af0 -->
<g id="node1" class="node">
<title>p0x7fe7d6065af0</title>
<polygon fill="aquamarine" stroke="black" points="123,-140.5 15.64,-122.5 123,-104.5 230.36,-122.5 123,-140.5"/>
<text text-anchor="middle" x="123" y="-117.45" font-family="Times,serif" font-size="14.00">p0x7fe7d6065af0</text>
</g>
<!-- p0x7fe7d60659e0 -->
<g id="node2" class="node">
<title>p0x7fe7d60659e0</title>
<ellipse fill="none" stroke="black" cx="51" cy="-34" rx="27" ry="18"/>
<text text-anchor="middle" x="51" y="-28.95" font-family="Times,serif" font-size="14.00">B</text>
</g>
<!-- p0x7fe7d6065af0&#45;&gt;p0x7fe7d60659e0 -->
<g id="edge1" class="edge">
<title>p0x7fe7d6065af0&#45;&gt;p0x7fe7d60659e0</title>
<path fill="none" stroke="black" stroke-dasharray="5,2" d="M110.46,-106.43C99.48,-93.24 83.34,-73.86 70.65,-58.61"/>
<polygon fill="black" stroke="black" points="73.7,-56.79 64.61,-51.35 68.32,-61.27 73.7,-56.79"/>
<text text-anchor="middle" x="96.82" y="-73.2" font-family="Times,serif" font-size="14.00">0</text>
</g>
<!-- p0x7fe7d6065e20 -->
<g id="node3" class="node">
<title>p0x7fe7d6065e20</title>
<ellipse fill="none" stroke="black" cx="123" cy="-34" rx="27" ry="18"/>
<text text-anchor="middle" x="123" y="-28.95" font-family="Times,serif" font-size="14.00">C</text>
</g>
<!-- p0x7fe7d6065af0&#45;&gt;p0x7fe7d6065e20 -->
<g id="edge2" class="edge">
<title>p0x7fe7d6065af0&#45;&gt;p0x7fe7d6065e20</title>
<path fill="none" stroke="black" stroke-dasharray="5,2" d="M123,-104C123,-92.51 123,-77.2 123,-63.93"/>
<polygon fill="black" stroke="black" points="126.5,-63.99 123,-53.99 119.5,-63.99 126.5,-63.99"/>
<text text-anchor="middle" x="126.38" y="-73.2" font-family="Times,serif" font-size="14.00">1</text>
</g>
<!-- p0x7fe7d6065d10 -->
<g id="node4" class="node">
<title>p0x7fe7d6065d10</title>
<ellipse fill="none" stroke="black" cx="195" cy="-34" rx="27" ry="18"/>
<text text-anchor="middle" x="195" y="-28.95" font-family="Times,serif" font-size="14.00">D</text>
</g>
<!-- p0x7fe7d6065af0&#45;&gt;p0x7fe7d6065d10 -->
<g id="edge3" class="edge">
<title>p0x7fe7d6065af0&#45;&gt;p0x7fe7d6065d10</title>
<path fill="none" stroke="black" stroke-dasharray="5,2" d="M135.54,-106.43C146.52,-93.24 162.66,-73.86 175.35,-58.61"/>
<polygon fill="black" stroke="black" points="177.68,-61.27 181.39,-51.35 172.3,-56.79 177.68,-61.27"/>
<text text-anchor="middle" x="168.82" y="-73.2" font-family="Times,serif" font-size="14.00">2</text>
</g>
</g>
</svg>
