<?xml version="1.0" encoding="UTF-8" standalone="no"?>
<!DOCTYPE svg PUBLIC "-//W3C//DTD SVG 1.1//EN"
 "http://www.w3.org/Graphics/SVG/1.1/DTD/svg11.dtd">
<!-- Generated by graphviz version 12.1.2 (20240928.0832)
 -->
<!-- Title: Taskflow Pages: 1 -->
<svg width="297pt" height="439pt"
 viewBox="0.00 0.00 297.00 439.00" xmlns="http://www.w3.org/2000/svg" xmlns:xlink="http://www.w3.org/1999/xlink">
<g id="graph0" class="graph" transform="scale(1 1) rotate(0) translate(4 435)">
<title>Taskflow</title>
<polygon fill="white" stroke="none" points="-4,4 -4,-435 293,-435 293,4 -4,4"/>
<g id="clust1" class="cluster">
<title>cluster_p0x7ff7b94cf2a8</title>
<polygon fill="none" stroke="black" points="8,-8 8,-423 281,-423 281,-8 8,-8"/>
<text text-anchor="middle" x="144.5" y="-405.7" font-family="Times,serif" font-size="14.00">Taskflow: p0x7ff7b94cf248</text>
</g>
<!-- p0x7f91cc3659e0 -->
<g id="node1" class="node">
<title>p0x7f91cc3659e0</title>
<ellipse fill="none" stroke="black" cx="90" cy="-372.5" rx="28.32" ry="18"/>
<text text-anchor="middle" x="90" y="-367.45" font-family="Times,serif" font-size="14.00">init i</text>
</g>
<!-- p0x7f91cc3656b0 -->
<g id="node2" class="node">
<title>p0x7f91cc3656b0</title>
<polygon fill="aquamarine" stroke="black" points="90,-317.5 16.65,-299.5 90,-281.5 163.35,-299.5 90,-317.5"/>
<text text-anchor="middle" x="90" y="-294.45" font-family="Times,serif" font-size="14.00">cond: i &gt; 1</text>
</g>
<!-- p0x7f91cc3659e0&#45;&gt;p0x7f91cc3656b0 -->
<g id="edge1" class="edge">
<title>p0x7f91cc3659e0&#45;&gt;p0x7f91cc3656b0</title>
<path fill="none" stroke="black" d="M90,-354.31C90,-346.73 90,-337.6 90,-329.04"/>
<polygon fill="black" stroke="black" points="93.5,-329.04 90,-319.04 86.5,-329.04 93.5,-329.04"/>
</g>
<!-- p0x7f91cc365c00 -->
<g id="node3" class="node">
<title>p0x7f91cc365c00</title>
<ellipse fill="none" stroke="black" cx="62" cy="-211" rx="46.23" ry="18"/>
<text text-anchor="middle" x="62" y="-205.95" font-family="Times,serif" font-size="14.00">print: i=1</text>
</g>
<!-- p0x7f91cc3656b0&#45;&gt;p0x7f91cc365c00 -->
<g id="edge2" class="edge">
<title>p0x7f91cc3656b0&#45;&gt;p0x7f91cc365c00</title>
<path fill="none" stroke="black" stroke-dasharray="5,2" d="M84.86,-282.63C81,-270.7 75.61,-254.05 71.03,-239.91"/>
<polygon fill="black" stroke="black" points="74.46,-239.12 68.05,-230.69 67.8,-241.28 74.46,-239.12"/>
<text text-anchor="middle" x="81.88" y="-250.2" font-family="Times,serif" font-size="14.00">0</text>
</g>
<!-- p0x7f91cc3658d0 -->
<g id="node4" class="node">
<title>p0x7f91cc3658d0</title>
<polygon fill="aquamarine" stroke="black" points="200,-229 126.65,-211 200,-193 273.35,-211 200,-229"/>
<text text-anchor="middle" x="200" y="-205.95" font-family="Times,serif" font-size="14.00">cond: i &gt; 2</text>
</g>
<!-- p0x7f91cc3656b0&#45;&gt;p0x7f91cc3658d0 -->
<g id="edge3" class="edge">
<title>p0x7f91cc3656b0&#45;&gt;p0x7f91cc3658d0</title>
<path fill="none" stroke="black" stroke-dasharray="5,2" d="M106.71,-285.36C124.64,-271.26 153.34,-248.69 174.18,-232.3"/>
<polygon fill="black" stroke="black" points="176.25,-235.13 181.95,-226.2 171.92,-229.63 176.25,-235.13"/>
<text text-anchor="middle" x="158.23" y="-250.2" font-family="Times,serif" font-size="14.00">1</text>
</g>
<!-- p0x7f91cc365e20 -->
<g id="node5" class="node">
<title>p0x7f91cc365e20</title>
<ellipse fill="none" stroke="black" cx="62" cy="-122.5" rx="46.23" ry="18"/>
<text text-anchor="middle" x="62" y="-117.45" font-family="Times,serif" font-size="14.00">print: i=2</text>
</g>
<!-- p0x7f91cc3658d0&#45;&gt;p0x7f91cc365e20 -->
<g id="edge4" class="edge">
<title>p0x7f91cc3658d0&#45;&gt;p0x7f91cc365e20</title>
<path fill="none" stroke="black" stroke-dasharray="5,2" d="M179.93,-197.42C157.79,-183.54 121.81,-160.99 95.4,-144.44"/>
<polygon fill="black" stroke="black" points="97.41,-141.57 87.08,-139.22 93.69,-147.5 97.41,-141.57"/>
<text text-anchor="middle" x="146.74" y="-161.7" font-family="Times,serif" font-size="14.00">0</text>
</g>
<!-- p0x7f91cc3657c0 -->
<g id="node6" class="node">
<title>p0x7f91cc3657c0</title>
<polygon fill="aquamarine" stroke="black" points="200,-140.5 126.65,-122.5 200,-104.5 273.35,-122.5 200,-140.5"/>
<text text-anchor="middle" x="200" y="-117.45" font-family="Times,serif" font-size="14.00">cond: i &gt; 3</text>
</g>
<!-- p0x7f91cc3658d0&#45;&gt;p0x7f91cc3657c0 -->
<g id="edge5" class="edge">
<title>p0x7f91cc3658d0&#45;&gt;p0x7f91cc3657c0</title>
<path fill="none" stroke="black" stroke-dasharray="5,2" d="M200,-192.5C200,-181.01 200,-165.7 200,-152.43"/>
<polygon fill="black" stroke="black" points="203.5,-152.49 200,-142.49 196.5,-152.49 203.5,-152.49"/>
<text text-anchor="middle" x="203.38" y="-161.7" font-family="Times,serif" font-size="14.00">1</text>
</g>
<!-- p0x7f91cc365af0 -->
<g id="node7" class="node">
<title>p0x7f91cc365af0</title>
<ellipse fill="none" stroke="black" cx="110" cy="-34" rx="46.23" ry="18"/>
<text text-anchor="middle" x="110" y="-28.95" font-family="Times,serif" font-size="14.00">print: i=3</text>
</g>
<!-- p0x7f91cc3657c0&#45;&gt;p0x7f91cc365af0 -->
<g id="edge6" class="edge">
<title>p0x7f91cc3657c0&#45;&gt;p0x7f91cc365af0</title>
<path fill="none" stroke="black" stroke-dasharray="5,2" d="M185.54,-107.6C171.91,-94.51 151.22,-74.61 134.93,-58.96"/>
<polygon fill="black" stroke="black" points="137.6,-56.68 127.97,-52.27 132.75,-61.72 137.6,-56.68"/>
<text text-anchor="middle" x="166.44" y="-73.2" font-family="Times,serif" font-size="14.00">0</text>
</g>
<!-- p0x7f91cc365d10 -->
<g id="node8" class="node">
<title>p0x7f91cc365d10</title>
<ellipse fill="none" stroke="black" cx="220" cy="-34" rx="46.23" ry="18"/>
<text text-anchor="middle" x="220" y="-28.95" font-family="Times,serif" font-size="14.00">print: i&gt;3</text>
</g>
<!-- p0x7f91cc3657c0&#45;&gt;p0x7f91cc365d10 -->
<g id="edge7" class="edge">
<title>p0x7f91cc3657c0&#45;&gt;p0x7f91cc365d10</title>
<path fill="none" stroke="black" stroke-dasharray="5,2" d="M203.76,-105.23C206.48,-93.45 210.23,-77.23 213.45,-63.35"/>
<polygon fill="black" stroke="black" points="216.8,-64.39 215.64,-53.86 209.98,-62.81 216.8,-64.39"/>
<text text-anchor="middle" x="215.17" y="-73.2" font-family="Times,serif" font-size="14.00">1</text>
</g>
</g>
</svg>
