<?xml version="1.0" encoding="UTF-8" standalone="no"?>
<!DOCTYPE svg PUBLIC "-//W3C//DTD SVG 1.1//EN"
 "http://www.w3.org/Graphics/SVG/1.1/DTD/svg11.dtd">
<!-- Generated by graphviz version 12.1.2 (20240928.0832)
 -->
<!-- Title: Taskflow Pages: 1 -->
<svg width="364pt" height="189pt"
 viewBox="0.00 0.00 364.00 189.00" xmlns="http://www.w3.org/2000/svg" xmlns:xlink="http://www.w3.org/1999/xlink">
<g id="graph0" class="graph" transform="scale(1 1) rotate(0) translate(4 185)">
<title>Taskflow</title>
<polygon fill="white" stroke="none" points="-4,4 -4,-185 360,-185 360,4 -4,4"/>
<g id="clust1" class="cluster">
<title>cluster_p0x7ff7b94cf890</title>
<polygon fill="none" stroke="black" points="8,-96.5 8,-173 126,-173 126,-96.5 8,-96.5"/>
<text text-anchor="middle" x="67" y="-155.7" font-family="Times,serif" font-size="14.00">Taskflow: pipeline</text>
</g>
<g id="clust2" class="cluster">
<title>cluster_p0x7ff7b94cf1a8</title>
<polygon fill="none" stroke="black" points="134,-8 134,-173 348,-173 348,-8 134,-8"/>
<text text-anchor="middle" x="241" y="-155.7" font-family="Times,serif" font-size="14.00">m1</text>
</g>
<!-- p0x7f91cc365c00 -->
<g id="node1" class="node">
<title>p0x7f91cc365c00</title>
<polygon fill="none" stroke="blue" points="112.12,-140.5 25.88,-140.5 21.88,-136.5 21.88,-104.5 108.12,-104.5 112.12,-108.5 112.12,-140.5"/>
<polyline fill="none" stroke="blue" points="108.12,-136.5 21.88,-136.5"/>
<polyline fill="none" stroke="blue" points="108.12,-136.5 108.12,-104.5"/>
<polyline fill="none" stroke="blue" points="108.12,-136.5 112.12,-140.5"/>
<text text-anchor="middle" x="67" y="-117.45" font-family="Times,serif" font-size="14.00">pipeline [m1]</text>
</g>
<!-- p0x7f91cc3659e0 -->
<g id="node2" class="node">
<title>p0x7f91cc3659e0</title>
<polygon fill="aquamarine" stroke="black" points="241,-140.5 200.23,-122.5 241,-104.5 281.77,-122.5 241,-140.5"/>
<text text-anchor="middle" x="241" y="-117.45" font-family="Times,serif" font-size="14.00">cond</text>
</g>
<!-- p0x7f91cc3656b0 -->
<g id="node3" class="node">
<title>p0x7f91cc3656b0</title>
<ellipse fill="none" stroke="black" cx="169" cy="-34" rx="27" ry="18"/>
<text text-anchor="middle" x="169" y="-28.95" font-family="Times,serif" font-size="14.00">rt&#45;0</text>
</g>
<!-- p0x7f91cc3659e0&#45;&gt;p0x7f91cc3656b0 -->
<g id="edge1" class="edge">
<title>p0x7f91cc3659e0&#45;&gt;p0x7f91cc3656b0</title>
<path fill="none" stroke="black" stroke-dasharray="5,2" d="M230.38,-108.74C219.42,-95.57 202.08,-74.74 188.62,-58.57"/>
<polygon fill="black" stroke="black" points="191.66,-56.76 182.58,-51.31 186.28,-61.24 191.66,-56.76"/>
<text text-anchor="middle" x="214.82" y="-73.2" font-family="Times,serif" font-size="14.00">0</text>
</g>
<!-- p0x7f91cc3658d0 -->
<g id="node4" class="node">
<title>p0x7f91cc3658d0</title>
<ellipse fill="none" stroke="black" cx="241" cy="-34" rx="27" ry="18"/>
<text text-anchor="middle" x="241" y="-28.95" font-family="Times,serif" font-size="14.00">rt&#45;1</text>
</g>
<!-- p0x7f91cc3659e0&#45;&gt;p0x7f91cc3658d0 -->
<g id="edge2" class="edge">
<title>p0x7f91cc3659e0&#45;&gt;p0x7f91cc3658d0</title>
<path fill="none" stroke="black" stroke-dasharray="5,2" d="M241,-104C241,-92.51 241,-77.2 241,-63.93"/>
<polygon fill="black" stroke="black" points="244.5,-63.99 241,-53.99 237.5,-63.99 244.5,-63.99"/>
<text text-anchor="middle" x="244.38" y="-73.2" font-family="Times,serif" font-size="14.00">1</text>
</g>
<!-- p0x7f91cc3657c0 -->
<g id="node5" class="node">
<title>p0x7f91cc3657c0</title>
<ellipse fill="none" stroke="black" cx="313" cy="-34" rx="27" ry="18"/>
<text text-anchor="middle" x="313" y="-28.95" font-family="Times,serif" font-size="14.00">rt&#45;2</text>
</g>
<!-- p0x7f91cc3659e0&#45;&gt;p0x7f91cc3657c0 -->
<g id="edge3" class="edge">
<title>p0x7f91cc3659e0&#45;&gt;p0x7f91cc3657c0</title>
<path fill="none" stroke="black" stroke-dasharray="5,2" d="M251.62,-108.74C262.58,-95.57 279.92,-74.74 293.38,-58.57"/>
<polygon fill="black" stroke="black" points="295.72,-61.24 299.42,-51.31 290.34,-56.76 295.72,-61.24"/>
<text text-anchor="middle" x="286.82" y="-73.2" font-family="Times,serif" font-size="14.00">2</text>
</g>
</g>
</svg>
