<?xml version="1.0" encoding="UTF-8" standalone="no"?>
<!DOCTYPE svg PUBLIC "-//W3C//DTD SVG 1.1//EN"
 "http://www.w3.org/Graphics/SVG/1.1/DTD/svg11.dtd">
<!-- Generated by graphviz version 12.1.2 (20240928.0832)
 -->
<!-- Title: Taskflow Pages: 1 -->
<svg width="388pt" height="262pt"
 viewBox="0.00 0.00 388.00 262.00" xmlns="http://www.w3.org/2000/svg" xmlns:xlink="http://www.w3.org/1999/xlink">
<g id="graph0" class="graph" transform="scale(1 1) rotate(0) translate(4 258)">
<title>Taskflow</title>
<polygon fill="white" stroke="none" points="-4,4 -4,-258 384,-258 384,4 -4,4"/>
<g id="clust1" class="cluster">
<title>cluster_p0x7ff7bc0a15a8</title>
<polygon fill="none" stroke="black" points="8,-8 8,-246 222,-246 222,-8 8,-8"/>
<text text-anchor="middle" x="115" y="-228.7" font-family="Times,serif" font-size="14.00">Taskflow: graph processing pipeline</text>
</g>
<g id="clust2" class="cluster">
<title>cluster_p0x7ff7bc0a13f0</title>
<polygon fill="none" stroke="black" points="230,-81 230,-246 372,-246 372,-81 230,-81"/>
<text text-anchor="middle" x="301" y="-228.7" font-family="Times,serif" font-size="14.00">m1</text>
</g>
<!-- p0x7fb9e0961c40 -->
<g id="node1" class="node">
<title>p0x7fb9e0961c40</title>
<ellipse fill="none" stroke="black" cx="115" cy="-195.5" rx="70.8" ry="18"/>
<text text-anchor="middle" x="115" y="-190.45" font-family="Times,serif" font-size="14.00">starting pipeline</text>
</g>
<!-- p0x7fb9e0961b30 -->
<g id="node2" class="node">
<title>p0x7fb9e0961b30</title>
<polygon fill="none" stroke="blue" points="160.12,-125 73.88,-125 69.88,-121 69.88,-89 156.12,-89 160.12,-93 160.12,-125"/>
<polyline fill="none" stroke="blue" points="156.12,-121 69.88,-121"/>
<polyline fill="none" stroke="blue" points="156.12,-121 156.12,-89"/>
<polyline fill="none" stroke="blue" points="156.12,-121 160.12,-125"/>
<text text-anchor="middle" x="115" y="-101.95" font-family="Times,serif" font-size="14.00">pipeline [m1]</text>
</g>
<!-- p0x7fb9e0961c40&#45;&gt;p0x7fb9e0961b30 -->
<g id="edge1" class="edge">
<title>p0x7fb9e0961c40&#45;&gt;p0x7fb9e0961b30</title>
<path fill="none" stroke="black" d="M115,-177.41C115,-165.76 115,-150.05 115,-136.52"/>
<polygon fill="black" stroke="black" points="118.5,-136.86 115,-126.86 111.5,-136.86 118.5,-136.86"/>
</g>
<!-- p0x7fb9e0961f70 -->
<g id="node3" class="node">
<title>p0x7fb9e0961f70</title>
<ellipse fill="none" stroke="black" cx="115" cy="-34" rx="71.82" ry="18"/>
<text text-anchor="middle" x="115" y="-28.95" font-family="Times,serif" font-size="14.00">pipeline stopped</text>
</g>
<!-- p0x7fb9e0961b30&#45;&gt;p0x7fb9e0961f70 -->
<g id="edge2" class="edge">
<title>p0x7fb9e0961b30&#45;&gt;p0x7fb9e0961f70</title>
<path fill="none" stroke="black" d="M115,-88.81C115,-81.23 115,-72.1 115,-63.54"/>
<polygon fill="black" stroke="black" points="118.5,-63.54 115,-53.54 111.5,-63.54 118.5,-63.54"/>
</g>
<!-- p0x7fb9e0965c00 -->
<g id="node4" class="node">
<title>p0x7fb9e0965c00</title>
<polygon fill="aquamarine" stroke="black" points="287,-213.5 246.23,-195.5 287,-177.5 327.77,-195.5 287,-213.5"/>
<text text-anchor="middle" x="287" y="-190.45" font-family="Times,serif" font-size="14.00">cond</text>
</g>
<!-- p0x7fb9e0961e60 -->
<g id="node5" class="node">
<title>p0x7fb9e0961e60</title>
<ellipse fill="none" stroke="black" cx="265" cy="-107" rx="27" ry="18"/>
<text text-anchor="middle" x="265" y="-101.95" font-family="Times,serif" font-size="14.00">rt&#45;0</text>
</g>
<!-- p0x7fb9e0965c00&#45;&gt;p0x7fb9e0961e60 -->
<g id="edge3" class="edge">
<title>p0x7fb9e0965c00&#45;&gt;p0x7fb9e0961e60</title>
<path fill="none" stroke="black" stroke-dasharray="5,2" d="M283.07,-179.04C280.02,-167.07 275.73,-150.19 272.09,-135.89"/>
<polygon fill="black" stroke="black" points="275.58,-135.4 269.72,-126.58 268.8,-137.13 275.58,-135.4"/>
<text text-anchor="middle" x="281.35" y="-146.2" font-family="Times,serif" font-size="14.00">0</text>
</g>
<!-- p0x7fb9e0961d50 -->
<g id="node6" class="node">
<title>p0x7fb9e0961d50</title>
<ellipse fill="none" stroke="black" cx="337" cy="-107" rx="27" ry="18"/>
<text text-anchor="middle" x="337" y="-101.95" font-family="Times,serif" font-size="14.00">rt&#45;1</text>
</g>
<!-- p0x7fb9e0965c00&#45;&gt;p0x7fb9e0961d50 -->
<g id="edge4" class="edge">
<title>p0x7fb9e0965c00&#45;&gt;p0x7fb9e0961d50</title>
<path fill="none" stroke="black" stroke-dasharray="5,2" d="M295.03,-180.6C302.26,-168.11 313.05,-149.43 321.89,-134.14"/>
<polygon fill="black" stroke="black" points="324.89,-135.94 326.87,-125.53 318.83,-132.44 324.89,-135.94"/>
<text text-anchor="middle" x="319.85" y="-146.2" font-family="Times,serif" font-size="14.00">1</text>
</g>
</g>
</svg>
