<?xml version="1.0" encoding="UTF-8" standalone="no"?>
<!DOCTYPE svg PUBLIC "-//W3C//DTD SVG 1.1//EN"
 "http://www.w3.org/Graphics/SVG/1.1/DTD/svg11.dtd">
<!-- Generated by graphviz version 12.1.2 (20240928.0832)
 -->
<!-- Title: Taskflow Pages: 1 -->
<svg width="487pt" height="262pt"
 viewBox="0.00 0.00 487.00 262.00" xmlns="http://www.w3.org/2000/svg" xmlns:xlink="http://www.w3.org/1999/xlink">
<g id="graph0" class="graph" transform="scale(1 1) rotate(0) translate(4 258)">
<title>Taskflow</title>
<polygon fill="white" stroke="none" points="-4,4 -4,-258 483,-258 483,4 -4,4"/>
<g id="clust1" class="cluster">
<title>cluster_p0x7ff7b94cf890</title>
<polygon fill="none" stroke="black" points="8,-8 8,-246 177,-246 177,-8 8,-8"/>
<text text-anchor="middle" x="92.5" y="-228.7" font-family="Times,serif" font-size="14.00">Taskflow: deferred_pipeline</text>
</g>
<g id="clust2" class="cluster">
<title>cluster_p0x7ff7b94cf138</title>
<polygon fill="none" stroke="black" points="185,-81 185,-246 471,-246 471,-81 185,-81"/>
<text text-anchor="middle" x="328" y="-228.7" font-family="Times,serif" font-size="14.00">m1</text>
</g>
<!-- p0x7f91cc3659e0 -->
<g id="node1" class="node">
<title>p0x7f91cc3659e0</title>
<ellipse fill="none" stroke="black" cx="92" cy="-195.5" rx="70.8" ry="18"/>
<text text-anchor="middle" x="92" y="-190.45" font-family="Times,serif" font-size="14.00">starting pipeline</text>
</g>
<!-- p0x7f91cc365c00 -->
<g id="node2" class="node">
<title>p0x7f91cc365c00</title>
<polygon fill="none" stroke="blue" points="163,-125 25,-125 21,-121 21,-89 159,-89 163,-93 163,-125"/>
<polyline fill="none" stroke="blue" points="159,-121 21,-121"/>
<polyline fill="none" stroke="blue" points="159,-121 159,-89"/>
<polyline fill="none" stroke="blue" points="159,-121 163,-125"/>
<text text-anchor="middle" x="92" y="-101.95" font-family="Times,serif" font-size="14.00">deferred_pipeline [m1]</text>
</g>
<!-- p0x7f91cc3659e0&#45;&gt;p0x7f91cc365c00 -->
<g id="edge1" class="edge">
<title>p0x7f91cc3659e0&#45;&gt;p0x7f91cc365c00</title>
<path fill="none" stroke="black" d="M92,-177.41C92,-165.76 92,-150.05 92,-136.52"/>
<polygon fill="black" stroke="black" points="95.5,-136.86 92,-126.86 88.5,-136.86 95.5,-136.86"/>
</g>
<!-- p0x7f91cc3656b0 -->
<g id="node3" class="node">
<title>p0x7f91cc3656b0</title>
<ellipse fill="none" stroke="black" cx="92" cy="-34" rx="71.82" ry="18"/>
<text text-anchor="middle" x="92" y="-28.95" font-family="Times,serif" font-size="14.00">pipeline stopped</text>
</g>
<!-- p0x7f91cc365c00&#45;&gt;p0x7f91cc3656b0 -->
<g id="edge2" class="edge">
<title>p0x7f91cc365c00&#45;&gt;p0x7f91cc3656b0</title>
<path fill="none" stroke="black" d="M92,-88.81C92,-81.23 92,-72.1 92,-63.54"/>
<polygon fill="black" stroke="black" points="95.5,-63.54 92,-53.54 88.5,-63.54 95.5,-63.54"/>
</g>
<!-- p0x7f91cc365e20 -->
<g id="node4" class="node">
<title>p0x7f91cc365e20</title>
<polygon fill="aquamarine" stroke="black" points="327,-213.5 286.23,-195.5 327,-177.5 367.77,-195.5 327,-213.5"/>
<text text-anchor="middle" x="327" y="-190.45" font-family="Times,serif" font-size="14.00">cond</text>
</g>
<!-- p0x7f91cc3657c0 -->
<g id="node5" class="node">
<title>p0x7f91cc3657c0</title>
<ellipse fill="none" stroke="black" cx="220" cy="-107" rx="27" ry="18"/>
<text text-anchor="middle" x="220" y="-101.95" font-family="Times,serif" font-size="14.00">rt&#45;0</text>
</g>
<!-- p0x7f91cc365e20&#45;&gt;p0x7f91cc3657c0 -->
<g id="edge3" class="edge">
<title>p0x7f91cc365e20&#45;&gt;p0x7f91cc3657c0</title>
<path fill="none" stroke="black" stroke-dasharray="5,2" d="M313.01,-183.19C295.94,-169.39 266.73,-145.78 245.6,-128.69"/>
<polygon fill="black" stroke="black" points="247.96,-126.11 237.99,-122.54 243.56,-131.55 247.96,-126.11"/>
<text text-anchor="middle" x="286.46" y="-146.2" font-family="Times,serif" font-size="14.00">0</text>
</g>
<!-- p0x7f91cc3655a0 -->
<g id="node6" class="node">
<title>p0x7f91cc3655a0</title>
<ellipse fill="none" stroke="black" cx="292" cy="-107" rx="27" ry="18"/>
<text text-anchor="middle" x="292" y="-101.95" font-family="Times,serif" font-size="14.00">rt&#45;1</text>
</g>
<!-- p0x7f91cc365e20&#45;&gt;p0x7f91cc3655a0 -->
<g id="edge4" class="edge">
<title>p0x7f91cc365e20&#45;&gt;p0x7f91cc3655a0</title>
<path fill="none" stroke="black" stroke-dasharray="5,2" d="M321.06,-179.83C316.15,-167.69 309.04,-150.12 303.08,-135.39"/>
<polygon fill="black" stroke="black" points="306.37,-134.18 299.37,-126.23 299.88,-136.81 306.37,-134.18"/>
<text text-anchor="middle" x="316.01" y="-146.2" font-family="Times,serif" font-size="14.00">1</text>
</g>
<!-- p0x7f91cc365d10 -->
<g id="node7" class="node">
<title>p0x7f91cc365d10</title>
<ellipse fill="none" stroke="black" cx="364" cy="-107" rx="27" ry="18"/>
<text text-anchor="middle" x="364" y="-101.95" font-family="Times,serif" font-size="14.00">rt&#45;2</text>
</g>
<!-- p0x7f91cc365e20&#45;&gt;p0x7f91cc365d10 -->
<g id="edge5" class="edge">
<title>p0x7f91cc365e20&#45;&gt;p0x7f91cc365d10</title>
<path fill="none" stroke="black" stroke-dasharray="5,2" d="M333.28,-179.83C338.47,-167.69 345.98,-150.12 352.28,-135.39"/>
<polygon fill="black" stroke="black" points="355.49,-136.78 356.21,-126.21 349.06,-134.03 355.49,-136.78"/>
<text text-anchor="middle" x="352.19" y="-146.2" font-family="Times,serif" font-size="14.00">2</text>
</g>
<!-- p0x7f91cc3658d0 -->
<g id="node8" class="node">
<title>p0x7f91cc3658d0</title>
<ellipse fill="none" stroke="black" cx="436" cy="-107" rx="27" ry="18"/>
<text text-anchor="middle" x="436" y="-101.95" font-family="Times,serif" font-size="14.00">rt&#45;3</text>
</g>
<!-- p0x7f91cc365e20&#45;&gt;p0x7f91cc3658d0 -->
<g id="edge6" class="edge">
<title>p0x7f91cc365e20&#45;&gt;p0x7f91cc3658d0</title>
<path fill="none" stroke="black" stroke-dasharray="5,2" d="M340.8,-183.54C358.25,-169.7 388.61,-145.6 410.36,-128.35"/>
<polygon fill="black" stroke="black" points="412.25,-131.32 417.91,-122.36 407.9,-125.83 412.25,-131.32"/>
<text text-anchor="middle" x="394.64" y="-146.2" font-family="Times,serif" font-size="14.00">3</text>
</g>
</g>
</svg>
