<?xml version="1.0" encoding="UTF-8" standalone="no"?>
<!DOCTYPE svg PUBLIC "-//W3C//DTD SVG 1.1//EN"
 "http://www.w3.org/Graphics/SVG/1.1/DTD/svg11.dtd">
<!-- Generated by graphviz version 12.1.2 (20240928.0832)
 -->
<!-- Title: Taskflow Pages: 1 -->
<svg width="478pt" height="262pt"
 viewBox="0.00 0.00 478.00 262.00" xmlns="http://www.w3.org/2000/svg" xmlns:xlink="http://www.w3.org/1999/xlink">
<g id="graph0" class="graph" transform="scale(1 1) rotate(0) translate(4 258)">
<title>Taskflow</title>
<polygon fill="white" stroke="none" points="-4,4 -4,-258 474,-258 474,4 -4,4"/>
<g id="clust1" class="cluster">
<title>cluster_p0x7ff7b94cf890</title>
<polygon fill="none" stroke="black" points="8,-8 8,-246 168,-246 168,-8 8,-8"/>
<text text-anchor="middle" x="88" y="-228.7" font-family="Times,serif" font-size="14.00">Taskflow: pipeline</text>
</g>
<g id="clust2" class="cluster">
<title>cluster_p0x7ff7b94cf100</title>
<polygon fill="none" stroke="black" points="176,-81 176,-246 462,-246 462,-81 176,-81"/>
<text text-anchor="middle" x="319" y="-228.7" font-family="Times,serif" font-size="14.00">m1</text>
</g>
<!-- p0x7f91cc3655a0 -->
<g id="node1" class="node">
<title>p0x7f91cc3655a0</title>
<ellipse fill="none" stroke="black" cx="88" cy="-195.5" rx="70.8" ry="18"/>
<text text-anchor="middle" x="88" y="-190.45" font-family="Times,serif" font-size="14.00">starting pipeline</text>
</g>
<!-- p0x7f91cc3657c0 -->
<g id="node2" class="node">
<title>p0x7f91cc3657c0</title>
<polygon fill="none" stroke="blue" points="159.75,-125 20.25,-125 16.25,-121 16.25,-89 155.75,-89 159.75,-93 159.75,-125"/>
<polyline fill="none" stroke="blue" points="155.75,-121 16.25,-121"/>
<polyline fill="none" stroke="blue" points="155.75,-121 155.75,-89"/>
<polyline fill="none" stroke="blue" points="155.75,-121 159.75,-125"/>
<text text-anchor="middle" x="88" y="-101.95" font-family="Times,serif" font-size="14.00">p0x7f91cc3657c0 [m1]</text>
</g>
<!-- p0x7f91cc3655a0&#45;&gt;p0x7f91cc3657c0 -->
<g id="edge1" class="edge">
<title>p0x7f91cc3655a0&#45;&gt;p0x7f91cc3657c0</title>
<path fill="none" stroke="black" d="M88,-177.41C88,-165.76 88,-150.05 88,-136.52"/>
<polygon fill="black" stroke="black" points="91.5,-136.86 88,-126.86 84.5,-136.86 91.5,-136.86"/>
</g>
<!-- p0x7f91cc365e20 -->
<g id="node3" class="node">
<title>p0x7f91cc365e20</title>
<ellipse fill="none" stroke="black" cx="88" cy="-34" rx="71.82" ry="18"/>
<text text-anchor="middle" x="88" y="-28.95" font-family="Times,serif" font-size="14.00">pipeline stopped</text>
</g>
<!-- p0x7f91cc3657c0&#45;&gt;p0x7f91cc365e20 -->
<g id="edge2" class="edge">
<title>p0x7f91cc3657c0&#45;&gt;p0x7f91cc365e20</title>
<path fill="none" stroke="black" d="M88,-88.81C88,-81.23 88,-72.1 88,-63.54"/>
<polygon fill="black" stroke="black" points="91.5,-63.54 88,-53.54 84.5,-63.54 91.5,-63.54"/>
</g>
<!-- p0x7f91cc3656b0 -->
<g id="node4" class="node">
<title>p0x7f91cc3656b0</title>
<polygon fill="aquamarine" stroke="black" points="318,-213.5 277.23,-195.5 318,-177.5 358.77,-195.5 318,-213.5"/>
<text text-anchor="middle" x="318" y="-190.45" font-family="Times,serif" font-size="14.00">cond</text>
</g>
<!-- p0x7f91cc365c00 -->
<g id="node5" class="node">
<title>p0x7f91cc365c00</title>
<ellipse fill="none" stroke="black" cx="211" cy="-107" rx="27" ry="18"/>
<text text-anchor="middle" x="211" y="-101.95" font-family="Times,serif" font-size="14.00">rt&#45;0</text>
</g>
<!-- p0x7f91cc3656b0&#45;&gt;p0x7f91cc365c00 -->
<g id="edge3" class="edge">
<title>p0x7f91cc3656b0&#45;&gt;p0x7f91cc365c00</title>
<path fill="none" stroke="black" stroke-dasharray="5,2" d="M304.01,-183.19C286.94,-169.39 257.73,-145.78 236.6,-128.69"/>
<polygon fill="black" stroke="black" points="238.96,-126.11 228.99,-122.54 234.56,-131.55 238.96,-126.11"/>
<text text-anchor="middle" x="277.46" y="-146.2" font-family="Times,serif" font-size="14.00">0</text>
</g>
<!-- p0x7f91cc3659e0 -->
<g id="node6" class="node">
<title>p0x7f91cc3659e0</title>
<ellipse fill="none" stroke="black" cx="283" cy="-107" rx="27" ry="18"/>
<text text-anchor="middle" x="283" y="-101.95" font-family="Times,serif" font-size="14.00">rt&#45;1</text>
</g>
<!-- p0x7f91cc3656b0&#45;&gt;p0x7f91cc3659e0 -->
<g id="edge4" class="edge">
<title>p0x7f91cc3656b0&#45;&gt;p0x7f91cc3659e0</title>
<path fill="none" stroke="black" stroke-dasharray="5,2" d="M312.06,-179.83C307.15,-167.69 300.04,-150.12 294.08,-135.39"/>
<polygon fill="black" stroke="black" points="297.37,-134.18 290.37,-126.23 290.88,-136.81 297.37,-134.18"/>
<text text-anchor="middle" x="307.01" y="-146.2" font-family="Times,serif" font-size="14.00">1</text>
</g>
<!-- p0x7f91cc3658d0 -->
<g id="node7" class="node">
<title>p0x7f91cc3658d0</title>
<ellipse fill="none" stroke="black" cx="355" cy="-107" rx="27" ry="18"/>
<text text-anchor="middle" x="355" y="-101.95" font-family="Times,serif" font-size="14.00">rt&#45;2</text>
</g>
<!-- p0x7f91cc3656b0&#45;&gt;p0x7f91cc3658d0 -->
<g id="edge5" class="edge">
<title>p0x7f91cc3656b0&#45;&gt;p0x7f91cc3658d0</title>
<path fill="none" stroke="black" stroke-dasharray="5,2" d="M324.28,-179.83C329.47,-167.69 336.98,-150.12 343.28,-135.39"/>
<polygon fill="black" stroke="black" points="346.49,-136.78 347.21,-126.21 340.06,-134.03 346.49,-136.78"/>
<text text-anchor="middle" x="343.19" y="-146.2" font-family="Times,serif" font-size="14.00">2</text>
</g>
<!-- p0x7f91cc365d10 -->
<g id="node8" class="node">
<title>p0x7f91cc365d10</title>
<ellipse fill="none" stroke="black" cx="427" cy="-107" rx="27" ry="18"/>
<text text-anchor="middle" x="427" y="-101.95" font-family="Times,serif" font-size="14.00">rt&#45;3</text>
</g>
<!-- p0x7f91cc3656b0&#45;&gt;p0x7f91cc365d10 -->
<g id="edge6" class="edge">
<title>p0x7f91cc3656b0&#45;&gt;p0x7f91cc365d10</title>
<path fill="none" stroke="black" stroke-dasharray="5,2" d="M331.8,-183.54C349.25,-169.7 379.61,-145.6 401.36,-128.35"/>
<polygon fill="black" stroke="black" points="403.25,-131.32 408.91,-122.36 398.9,-125.83 403.25,-131.32"/>
<text text-anchor="middle" x="385.64" y="-146.2" font-family="Times,serif" font-size="14.00">3</text>
</g>
</g>
</svg>
