<?xml version="1.0" encoding="UTF-8" standalone="no"?>
<!DOCTYPE svg PUBLIC "-//W3C//DTD SVG 1.1//EN"
 "http://www.w3.org/Graphics/SVG/1.1/DTD/svg11.dtd">
<!-- Generated by graphviz version 12.1.2 (20240928.0832)
 -->
<!-- Title: Taskflow Pages: 1 -->
<svg width="166pt" height="245pt"
 viewBox="0.00 0.00 166.00 244.50" xmlns="http://www.w3.org/2000/svg" xmlns:xlink="http://www.w3.org/1999/xlink">
<g id="graph0" class="graph" transform="scale(1 1) rotate(0) translate(4 240.5)">
<title>Taskflow</title>
<polygon fill="white" stroke="none" points="-4,4 -4,-240.5 162,-240.5 162,4 -4,4"/>
<g id="clust1" class="cluster">
<title>cluster_p0x7ff7b50212a8</title>
<polygon fill="none" stroke="black" points="8,-8 8,-228.5 150,-228.5 150,-8 8,-8"/>
<text text-anchor="middle" x="79" y="-211.2" font-family="Times,serif" font-size="14.00">Taskflow: Demo</text>
</g>
<!-- p0x7fc187164b00 -->
<g id="node1" class="node">
<title>p0x7fc187164b00</title>
<ellipse fill="none" stroke="black" cx="79" cy="-178" rx="27" ry="18"/>
<text text-anchor="middle" x="79" y="-172.95" font-family="Times,serif" font-size="14.00">A</text>
</g>
<!-- p0x7fc187163290 -->
<g id="node2" class="node">
<title>p0x7fc187163290</title>
<ellipse fill="none" stroke="black" cx="43" cy="-106" rx="27" ry="18"/>
<text text-anchor="middle" x="43" y="-100.95" font-family="Times,serif" font-size="14.00">B</text>
</g>
<!-- p0x7fc187164b00&#45;&gt;p0x7fc187163290 -->
<g id="edge1" class="edge">
<title>p0x7fc187164b00&#45;&gt;p0x7fc187163290</title>
<path fill="none" stroke="black" d="M70.65,-160.76C66.42,-152.55 61.19,-142.37 56.42,-133.09"/>
<polygon fill="black" stroke="black" points="59.68,-131.79 52,-124.49 53.46,-134.99 59.68,-131.79"/>
</g>
<!-- p0x7fc1871638f0 -->
<g id="node3" class="node">
<title>p0x7fc1871638f0</title>
<ellipse fill="none" stroke="black" cx="115" cy="-106" rx="27" ry="18"/>
<text text-anchor="middle" x="115" y="-100.95" font-family="Times,serif" font-size="14.00">C</text>
</g>
<!-- p0x7fc187164b00&#45;&gt;p0x7fc1871638f0 -->
<g id="edge2" class="edge">
<title>p0x7fc187164b00&#45;&gt;p0x7fc1871638f0</title>
<path fill="none" stroke="black" d="M87.35,-160.76C91.58,-152.55 96.81,-142.37 101.58,-133.09"/>
<polygon fill="black" stroke="black" points="104.54,-134.99 106,-124.49 98.32,-131.79 104.54,-134.99"/>
</g>
<!-- p0x7fc187163b10 -->
<g id="node4" class="node">
<title>p0x7fc187163b10</title>
<ellipse fill="none" stroke="black" cx="79" cy="-34" rx="27" ry="18"/>
<text text-anchor="middle" x="79" y="-28.95" font-family="Times,serif" font-size="14.00">D</text>
</g>
<!-- p0x7fc187163290&#45;&gt;p0x7fc187163b10 -->
<g id="edge3" class="edge">
<title>p0x7fc187163290&#45;&gt;p0x7fc187163b10</title>
<path fill="none" stroke="black" d="M51.35,-88.76C55.58,-80.55 60.81,-70.37 65.58,-61.09"/>
<polygon fill="black" stroke="black" points="68.54,-62.99 70,-52.49 62.32,-59.79 68.54,-62.99"/>
</g>
<!-- p0x7fc1871638f0&#45;&gt;p0x7fc187163b10 -->
<g id="edge4" class="edge">
<title>p0x7fc1871638f0&#45;&gt;p0x7fc187163b10</title>
<path fill="none" stroke="black" d="M106.65,-88.76C102.42,-80.55 97.19,-70.37 92.42,-61.09"/>
<polygon fill="black" stroke="black" points="95.68,-59.79 88,-52.49 89.46,-62.99 95.68,-59.79"/>
</g>
</g>
</svg>
