<?xml version="1.0" encoding="UTF-8" standalone="no"?>
<!DOCTYPE svg PUBLIC "-//W3C//DTD SVG 1.1//EN"
 "http://www.w3.org/Graphics/SVG/1.1/DTD/svg11.dtd">
<!-- Generated by graphviz version 12.1.2 (20240928.0832)
 -->
<!-- Title: Taskflow Pages: 1 -->
<svg width="180pt" height="421pt"
 viewBox="0.00 0.00 180.00 421.00" xmlns="http://www.w3.org/2000/svg" xmlns:xlink="http://www.w3.org/1999/xlink">
<g id="graph0" class="graph" transform="scale(1 1) rotate(0) translate(4 417)">
<title>Taskflow</title>
<polygon fill="white" stroke="none" points="-4,4 -4,-417 176,-417 176,4 -4,4"/>
<g id="clust1" class="cluster">
<title>cluster_p0x7ff7be72b228</title>
<polygon fill="none" stroke="black" points="8,-8 8,-405 164,-405 164,-8 8,-8"/>
<text text-anchor="middle" x="86" y="-387.7" font-family="Times,serif" font-size="14.00">Taskflow: Demo</text>
</g>
<g id="clust2" class="cluster">
<title>cluster_p0x7fe7d60659e0</title>
<polygon fill="none" stroke="blue" points="16,-80 16,-372.5 94,-372.5 94,-80 16,-80"/>
<text text-anchor="middle" x="55" y="-355.2" font-family="Times,serif" font-size="14.00">Subflow: B</text>
</g>
<!-- p0x7fe7d6065af0 -->
<g id="node1" class="node">
<title>p0x7fe7d6065af0</title>
<ellipse fill="none" stroke="black" cx="129" cy="-178" rx="27" ry="18"/>
<text text-anchor="middle" x="129" y="-172.95" font-family="Times,serif" font-size="14.00">A</text>
</g>
<!-- p0x7fe7d60659e0 -->
<g id="node2" class="node">
<title>p0x7fe7d60659e0</title>
<ellipse fill="none" stroke="black" cx="57" cy="-106" rx="27" ry="18"/>
<text text-anchor="middle" x="57" y="-100.95" font-family="Times,serif" font-size="14.00">B</text>
</g>
<!-- p0x7fe7d6065af0&#45;&gt;p0x7fe7d60659e0 -->
<g id="edge1" class="edge">
<title>p0x7fe7d6065af0&#45;&gt;p0x7fe7d60659e0</title>
<path fill="none" stroke="black" d="M114.08,-162.5C104.23,-152.92 91.14,-140.19 79.97,-129.34"/>
<polygon fill="black" stroke="black" points="82.59,-127 72.98,-122.54 77.71,-132.02 82.59,-127"/>
</g>
<!-- p0x7fe7d6065e20 -->
<g id="node3" class="node">
<title>p0x7fe7d6065e20</title>
<ellipse fill="none" stroke="black" cx="129" cy="-106" rx="27" ry="18"/>
<text text-anchor="middle" x="129" y="-100.95" font-family="Times,serif" font-size="14.00">C</text>
</g>
<!-- p0x7fe7d6065af0&#45;&gt;p0x7fe7d6065e20 -->
<g id="edge2" class="edge">
<title>p0x7fe7d6065af0&#45;&gt;p0x7fe7d6065e20</title>
<path fill="none" stroke="black" d="M129,-159.7C129,-152.41 129,-143.73 129,-135.54"/>
<polygon fill="black" stroke="black" points="132.5,-135.62 129,-125.62 125.5,-135.62 132.5,-135.62"/>
</g>
<!-- p0x7fe7d6065d10 -->
<g id="node4" class="node">
<title>p0x7fe7d6065d10</title>
<ellipse fill="none" stroke="black" cx="93" cy="-34" rx="27" ry="18"/>
<text text-anchor="middle" x="93" y="-28.95" font-family="Times,serif" font-size="14.00">D</text>
</g>
<!-- p0x7fe7d60659e0&#45;&gt;p0x7fe7d6065d10 -->
<g id="edge3" class="edge">
<title>p0x7fe7d60659e0&#45;&gt;p0x7fe7d6065d10</title>
<path fill="none" stroke="black" d="M65.35,-88.76C69.58,-80.55 74.81,-70.37 79.58,-61.09"/>
<polygon fill="black" stroke="black" points="82.54,-62.99 84,-52.49 76.32,-59.79 82.54,-62.99"/>
</g>
<!-- p0x7fe7d6065e20&#45;&gt;p0x7fe7d6065d10 -->
<g id="edge7" class="edge">
<title>p0x7fe7d6065e20&#45;&gt;p0x7fe7d6065d10</title>
<path fill="none" stroke="black" d="M120.65,-88.76C116.42,-80.55 111.19,-70.37 106.42,-61.09"/>
<polygon fill="black" stroke="black" points="109.68,-59.79 102,-52.49 103.46,-62.99 109.68,-59.79"/>
</g>
<!-- p0x7fe7d912c700 -->
<g id="node5" class="node">
<title>p0x7fe7d912c700</title>
<ellipse fill="none" stroke="black" cx="57" cy="-322" rx="27" ry="18"/>
<text text-anchor="middle" x="57" y="-316.95" font-family="Times,serif" font-size="14.00">B1</text>
</g>
<!-- p0x7fe7d912cb40 -->
<g id="node6" class="node">
<title>p0x7fe7d912cb40</title>
<ellipse fill="none" stroke="black" cx="57" cy="-250" rx="27" ry="18"/>
<text text-anchor="middle" x="57" y="-244.95" font-family="Times,serif" font-size="14.00">B2</text>
</g>
<!-- p0x7fe7d912c700&#45;&gt;p0x7fe7d912cb40 -->
<g id="edge4" class="edge">
<title>p0x7fe7d912c700&#45;&gt;p0x7fe7d912cb40</title>
<path fill="none" stroke="black" d="M57,-303.7C57,-296.41 57,-287.73 57,-279.54"/>
<polygon fill="black" stroke="black" points="60.5,-279.62 57,-269.62 53.5,-279.62 60.5,-279.62"/>
</g>
<!-- p0x7fe7d912c810 -->
<g id="node7" class="node">
<title>p0x7fe7d912c810</title>
<ellipse fill="none" stroke="black" cx="57" cy="-178" rx="27" ry="18"/>
<text text-anchor="middle" x="57" y="-172.95" font-family="Times,serif" font-size="14.00">B3</text>
</g>
<!-- p0x7fe7d912cb40&#45;&gt;p0x7fe7d912c810 -->
<g id="edge5" class="edge">
<title>p0x7fe7d912cb40&#45;&gt;p0x7fe7d912c810</title>
<path fill="none" stroke="black" d="M57,-231.7C57,-224.41 57,-215.73 57,-207.54"/>
<polygon fill="black" stroke="black" points="60.5,-207.62 57,-197.62 53.5,-207.62 60.5,-207.62"/>
</g>
<!-- p0x7fe7d912c810&#45;&gt;p0x7fe7d60659e0 -->
<g id="edge6" class="edge">
<title>p0x7fe7d912c810&#45;&gt;p0x7fe7d60659e0</title>
<path fill="none" stroke="black" d="M57,-159.7C57,-152.41 57,-143.73 57,-135.54"/>
<polygon fill="black" stroke="black" points="60.5,-135.62 57,-125.62 53.5,-135.62 60.5,-135.62"/>
</g>
</g>
</svg>
