<?xml version="1.0" encoding="UTF-8" standalone="no"?>
<!DOCTYPE svg PUBLIC "-//W3C//DTD SVG 1.1//EN"
 "http://www.w3.org/Graphics/SVG/1.1/DTD/svg11.dtd">
<!-- Generated by graphviz version 12.1.2 (20240928.0832)
 -->
<!-- Title: Taskflow Pages: 1 -->
<svg width="238pt" height="189pt"
 viewBox="0.00 0.00 238.00 189.00" xmlns="http://www.w3.org/2000/svg" xmlns:xlink="http://www.w3.org/1999/xlink">
<g id="graph0" class="graph" transform="scale(1 1) rotate(0) translate(4 185)">
<title>Taskflow</title>
<polygon fill="white" stroke="none" points="-4,4 -4,-185 234,-185 234,4 -4,4"/>
<g id="clust1" class="cluster">
<title>cluster_p0x7ff7be72b228</title>
<polygon fill="none" stroke="black" points="8,-8 8,-173 222,-173 222,-8 8,-8"/>
<text text-anchor="middle" x="115" y="-155.7" font-family="Times,serif" font-size="14.00">Taskflow: p0x7ff7be72b1c8</text>
</g>
<!-- p0x7fe7d6065d10 -->
<g id="node1" class="node">
<title>p0x7fe7d6065d10</title>
<polygon fill="aquamarine" stroke="black" points="115,-140.5 88,-122.5 115,-104.5 142,-122.5 115,-140.5"/>
<text text-anchor="middle" x="115" y="-117.45" font-family="Times,serif" font-size="14.00">A</text>
</g>
<!-- p0x7fe7d60659e0 -->
<g id="node2" class="node">
<title>p0x7fe7d60659e0</title>
<ellipse fill="none" stroke="black" cx="43" cy="-34" rx="27" ry="18"/>
<text text-anchor="middle" x="43" y="-28.95" font-family="Times,serif" font-size="14.00">B</text>
</g>
<!-- p0x7fe7d6065d10&#45;&gt;p0x7fe7d60659e0 -->
<g id="edge1" class="edge">
<title>p0x7fe7d6065d10&#45;&gt;p0x7fe7d60659e0</title>
<path fill="none" stroke="black" stroke-dasharray="5,2" d="M105.59,-110.19C94.78,-97.21 76.75,-75.55 62.81,-58.8"/>
<polygon fill="black" stroke="black" points="65.62,-56.7 56.53,-51.26 60.24,-61.18 65.62,-56.7"/>
<text text-anchor="middle" x="88.82" y="-73.2" font-family="Times,serif" font-size="14.00">0</text>
</g>
<!-- p0x7fe7d6065e20 -->
<g id="node3" class="node">
<title>p0x7fe7d6065e20</title>
<ellipse fill="none" stroke="black" cx="115" cy="-34" rx="27" ry="18"/>
<text text-anchor="middle" x="115" y="-28.95" font-family="Times,serif" font-size="14.00">C</text>
</g>
<!-- p0x7fe7d6065d10&#45;&gt;p0x7fe7d6065e20 -->
<g id="edge2" class="edge">
<title>p0x7fe7d6065d10&#45;&gt;p0x7fe7d6065e20</title>
<path fill="none" stroke="black" stroke-dasharray="5,2" d="M115,-104C115,-92.51 115,-77.2 115,-63.93"/>
<polygon fill="black" stroke="black" points="118.5,-63.99 115,-53.99 111.5,-63.99 118.5,-63.99"/>
<text text-anchor="middle" x="118.38" y="-73.2" font-family="Times,serif" font-size="14.00">1</text>
</g>
<!-- p0x7fe7d6065af0 -->
<g id="node4" class="node">
<title>p0x7fe7d6065af0</title>
<ellipse fill="none" stroke="black" cx="187" cy="-34" rx="27" ry="18"/>
<text text-anchor="middle" x="187" y="-28.95" font-family="Times,serif" font-size="14.00">D</text>
</g>
<!-- p0x7fe7d6065d10&#45;&gt;p0x7fe7d6065af0 -->
<g id="edge3" class="edge">
<title>p0x7fe7d6065d10&#45;&gt;p0x7fe7d6065af0</title>
<path fill="none" stroke="black" stroke-dasharray="5,2" d="M124.41,-110.19C135.22,-97.21 153.25,-75.55 167.19,-58.8"/>
<polygon fill="black" stroke="black" points="169.76,-61.18 173.47,-51.26 164.38,-56.7 169.76,-61.18"/>
<text text-anchor="middle" x="160.82" y="-73.2" font-family="Times,serif" font-size="14.00">2</text>
</g>
</g>
</svg>
